<svg width="50" height="62" viewBox="0 0 50 62" fill="none" xmlns="http://www.w3.org/2000/svg">
<path d="M15.8143 41.4849C14.5621 39.8438 13.2664 38.1378 12.2403 35.6287C11.236 33.1545 10.6795 30.6004 10.6969 27.9467C10.7186 25.2929 11.3055 22.5593 12.5838 19.7359C12.5925 19.7159 12.6012 19.701 12.6099 19.681C14.2838 16.4286 16.6273 14.2537 19.236 13.0366C21.423 12.009 23.8012 11.6598 26.1317 11.9042C28.4534 12.1487 30.7273 12.9867 32.7143 14.3335C35.2404 16.0495 37.3187 18.5936 38.4622 21.806C39.0795 23.547 39.4969 25.4874 39.5491 27.6124C39.6013 29.7325 39.2839 32.0171 38.4317 34.4315C37.1274 38.1378 34.0795 42.1085 32.0839 45.7549C31.9752 45.73 31.8621 45.725 31.7491 45.745L29.0578 46.2039L33.1578 29.8422C33.2752 29.3783 33.0361 28.8944 32.6317 28.7597C32.2274 28.63 31.8056 28.8994 31.6882 29.3633L27.3969 46.4932L23.3273 47.1866L19.0273 31.5033C19.336 31.5732 19.6621 31.4185 19.8317 31.0893L22.8795 25.1382L24.4317 29.2237C24.6012 29.6676 25.0491 29.8672 25.4317 29.6776C25.623 29.5828 25.7621 29.4032 25.836 29.1987L27.2099 25.218L28.8186 30.0866C28.9665 30.5406 29.4056 30.765 29.8013 30.5954C30.1969 30.4258 30.3926 29.922 30.2447 29.4681L27.9534 22.5343C27.8882 22.2899 27.7273 22.0804 27.5056 21.9806C27.1143 21.801 26.6708 22.0255 26.5143 22.4745L25.0925 26.5998L23.6751 22.8685C23.6143 22.7039 23.5056 22.5593 23.3621 22.4645C23.0012 22.2201 22.5317 22.3597 22.323 22.7738L18.6186 30.0068L18.3534 29.0441C18.2273 28.5852 17.8012 28.3258 17.4012 28.4704C17.0012 28.6151 16.7751 29.1039 16.9012 29.5629L21.8012 47.446L18.8534 47.9498C18.1404 45.5305 17.0534 43.1161 15.8143 41.4849ZM6.20118 9.57469C5.85771 9.20556 5.6751 8.71172 5.6577 8.21288C5.64031 7.71405 5.79249 7.20524 6.10988 6.81117C6.43162 6.41709 6.86206 6.20758 7.29684 6.18763C7.73162 6.16768 8.1751 6.34227 8.51858 6.70641L11.249 9.62458C11.5925 9.99371 11.7751 10.4876 11.7925 10.9864C11.8099 11.4902 11.6577 11.994 11.3403 12.3881C11.0186 12.7822 10.5882 12.9917 10.1534 13.0116C9.71424 13.0316 9.27511 12.857 8.93163 12.4929L6.20118 9.57469ZM1.73595 31.1092C1.27508 31.1192 0.853342 30.9147 0.540298 30.5805C0.222906 30.2363 0.0185574 29.7574 0.001166 29.2137C-0.0162254 28.6749 0.162036 28.1761 0.462037 27.812C0.762038 27.4478 1.17943 27.2134 1.65334 27.1984L5.37944 27.0537C5.84901 27.0338 6.28379 27.2383 6.60119 27.5825C6.91858 27.9267 7.12293 28.4056 7.13597 28.9493V28.9792H7.14032L7.13597 29.0491C7.12727 29.5529 6.95336 30.0068 6.6751 30.351C6.3751 30.7152 5.95771 30.9446 5.48379 30.9646H5.4577V30.9696H5.41857L1.73595 31.1092ZM48.1361 25.0484L48.1926 25.0435C48.6361 25.0135 49.0491 25.1781 49.3709 25.4774C49.71 25.7917 49.9404 26.2606 49.9926 26.7943V26.8143C49.997 26.8143 49.997 26.8692 49.997 26.8792C50.0231 27.388 49.8796 27.8618 49.6187 28.231C49.3448 28.6201 48.9361 28.8845 48.4709 28.9443L44.7622 29.3933C44.2926 29.4481 43.8491 29.2785 43.5143 28.9643C43.1752 28.65 42.9404 28.1811 42.8926 27.6474C42.8448 27.1136 42.9926 26.5998 43.2665 26.2157C43.5404 25.8266 43.9491 25.5572 44.4143 25.5024C45.6535 25.3477 46.897 25.1831 48.1361 25.0484ZM40.7882 8.01834C41.0535 7.56939 41.4448 7.29005 41.8709 7.19028C42.2969 7.0955 42.7535 7.18529 43.1491 7.48459L43.1535 7.48958C43.5448 7.78888 43.7926 8.24281 43.8752 8.73167C43.9578 9.22052 43.8796 9.7443 43.6187 10.1982L41.5448 13.7549C41.2839 14.2038 40.8882 14.4882 40.4578 14.5879C40.0317 14.6827 39.5752 14.5929 39.1795 14.2936C38.7882 13.9943 38.5404 13.5354 38.4535 13.0466C38.3708 12.5577 38.4491 12.0339 38.71 11.58L40.7882 8.01834ZM24.6838 2.26183C24.6969 1.7181 24.8969 1.23423 25.2143 0.89004C25.523 0.550834 25.9491 0.346313 26.4099 0.351302V0.346313C26.4491 0.346313 26.4882 0.351302 26.5273 0.35629C26.9578 0.396197 27.3447 0.620671 27.623 0.954888C27.9186 1.30906 28.0969 1.79292 28.0926 2.32667H28.0969C28.0969 2.36159 28.0969 2.39651 28.0926 2.42644L28.0013 6.60166H28.0056C28.0056 6.64655 28.0013 6.69145 27.9969 6.73634C27.9621 7.23517 27.7665 7.67415 27.4752 7.9934C27.1621 8.3326 26.7404 8.53712 26.2795 8.53214V8.53712C26.2404 8.53712 26.2012 8.53214 26.1621 8.52715C25.7273 8.48724 25.3447 8.26277 25.0665 7.92855C24.7708 7.56939 24.5925 7.08552 24.5969 6.55676H24.5925C24.5925 6.52185 24.5925 6.48693 24.5969 6.457L24.6838 2.26183ZM31.0534 48.1593L30.7795 49.6309L30.71 50.6784L19.6969 52.559C19.6577 51.8058 19.5534 50.9927 19.3882 50.1496L31.0534 48.1593ZM30.6882 52.973L30.6969 53.6065L30.71 53.826C30.7404 54.2401 30.7447 54.6591 30.723 55.0731L30.5578 55.986L20.3273 57.7319L20.1491 57.263L19.7491 55.3874L19.7404 54.8436L30.6882 52.973ZM29.8839 58.3903C29.3534 59.4329 28.623 60.246 27.7882 60.7997C27.0447 61.2985 26.2143 61.5829 25.3839 61.6427C24.5404 61.7026 23.6882 61.518 22.9099 61.089C22.3795 60.7897 21.8838 60.3757 21.4447 59.8369L29.8839 58.3903Z" fill="black"/>
</svg>
