<svg width="50" height="62" viewBox="0 0 50 62" fill="none" xmlns="http://www.w3.org/2000/svg">
<path d="M5.74632 49.6013V6.73971H35.9181V42.7363L41.6667 37.2887V3.44267C41.6667 1.62211 40.3809 0.14563 38.7941 0.14563H2.8726C1.28579 0.14563 0 1.62211 0 3.44267V52.897C0 54.7176 1.28579 56.194 2.8726 56.194H27.9482L23.8861 49.6013H5.74632Z" fill="black"/>
<path d="M49.5395 36.4587C48.9984 35.8732 48.1666 35.8457 47.5969 36.3838L34.1218 49.1609L25.1419 42.9798C24.5458 42.5702 23.7827 42.6923 23.3079 43.2804C22.8365 43.8632 22.785 44.7466 23.1866 45.3976L32.9182 61.1977C33.1905 61.64 33.6333 61.9052 34.1046 61.9104C34.1092 61.9104 34.1138 61.9104 34.1184 61.9104C34.5852 61.9104 35.0256 61.6571 35.3025 61.2213L49.718 38.6796C50.1528 37.9957 50.0784 37.0441 49.5395 36.4587Z" fill="black"/>
<path d="M27.0855 14.4871H14.5828C13.4323 14.4871 12.5 15.5576 12.5 16.8776C12.5 18.1977 13.4323 19.2682 14.5828 19.2682H27.0847C28.2352 19.2682 29.1667 18.1977 29.1667 16.8776C29.1667 15.5576 28.236 14.4871 27.0855 14.4871Z" fill="black"/>
<path d="M27.0855 26.4382H14.5828C13.4323 26.4382 12.5 27.5088 12.5 28.8288C12.5 30.1488 13.4323 31.2194 14.5828 31.2194H27.0846C28.2352 31.2194 29.1667 30.1498 29.1667 28.8288C29.1691 27.5088 28.236 26.4382 27.0855 26.4382Z" fill="black"/>
<path d="M27.0855 26.4382H14.5828C13.4323 26.4382 12.5 27.5088 12.5 28.8288C12.5 30.1488 13.4323 31.2194 14.5828 31.2194H27.0846C28.2352 31.2194 29.1667 30.1498 29.1667 28.8288C29.1691 27.5088 28.236 26.4382 27.0855 26.4382Z" stroke="black"/>
<path d="M27.0855 38.3892H14.5828C13.4323 38.3892 12.5 39.4597 12.5 40.7797C12.5 42.0998 13.4323 43.1703 14.5828 43.1703H27.0846C28.2352 43.1703 29.1667 42.0998 29.1667 40.7797C29.1691 39.4597 28.236 38.3892 27.0855 38.3892Z" fill="black"/>
</svg>
