<svg width="24" height="24" viewBox="0 0 24 24" fill="none" xmlns="http://www.w3.org/2000/svg">
<g clip-path="url(#clip0_1421_150)">
<path d="M24 12.0735C24 5.40454 18.627 -0.00146484 12 -0.00146484C5.37001 3.51563e-05 -0.00299072 5.40454 -0.00299072 12.075C-0.00299072 18.1005 4.38601 23.0955 10.122 24.0015V15.564H7.07701V12.075H10.125V9.41253C10.125 6.38704 11.9175 4.71603 14.658 4.71603C15.972 4.71603 17.3445 4.95154 17.3445 4.95154V7.92154H15.831C14.3415 7.92154 13.8765 8.85303 13.8765 9.80853V12.0735H17.2035L16.6725 15.5625H13.875V24C19.611 23.094 24 18.099 24 12.0735Z" fill="#662D91"/>
</g>
<defs>
<clipPath id="clip0_1421_150">
<rect width="24" height="24" fill="white"/>
</clipPath>
</defs>
</svg>
