<svg width="24" height="25" viewBox="0 0 24 25" fill="none" xmlns="http://www.w3.org/2000/svg">
<path d="M23 3.20293C22.0424 3.8784 20.9821 4.39504 19.86 4.73293C19.2577 4.04044 18.4573 3.54962 17.567 3.32685C16.6767 3.10409 15.7395 3.16012 14.8821 3.48738C14.0247 3.81464 13.2884 4.39733 12.773 5.15664C12.2575 5.91596 11.9877 6.81526 12 7.73293V8.73293C10.2426 8.77849 8.50127 8.38874 6.93101 7.59837C5.36074 6.80801 4.01032 5.64156 3 4.20293C3 4.20293 -1 13.2029 8 17.2029C5.94053 18.6009 3.48716 19.3019 1 19.2029C10 24.2029 21 19.2029 21 7.70293C20.9991 7.42438 20.9723 7.14652 20.92 6.87293C21.9406 5.86642 22.6608 4.59564 23 3.20293V3.20293Z" stroke="white" stroke-linecap="round" stroke-linejoin="round"/>
</svg>
