<svg width="22" height="23" viewBox="0 0 22 23" fill="none" xmlns="http://www.w3.org/2000/svg">
<path fill-rule="evenodd" clip-rule="evenodd" d="M5.7619 1.22705C3.14512 1.22705 1.0238 3.34837 1.0238 5.96515V16.4413C1.0238 19.0581 3.14512 21.1794 5.7619 21.1794H16.2381C18.8549 21.1794 20.9762 19.0581 20.9762 16.4413V5.96515C20.9762 3.34837 18.8549 1.22705 16.2381 1.22705H5.7619ZM0.0238037 5.96515C0.0238037 2.79608 2.59284 0.227051 5.7619 0.227051H16.2381C19.4072 0.227051 21.9762 2.79608 21.9762 5.96515V16.4413C21.9762 19.6104 19.4072 22.1794 16.2381 22.1794H5.7619C2.59284 22.1794 0.0238037 19.6104 0.0238037 16.4413V5.96515ZM11.5866 7.50716C10.8188 7.3933 10.0346 7.52445 9.34559 7.88197C8.65658 8.23948 8.09785 8.80515 7.74886 9.49852C7.39986 10.1919 7.27839 10.9776 7.40171 11.744C7.52503 12.5104 7.88687 13.2184 8.43576 13.7673C8.98464 14.3162 9.69263 14.678 10.459 14.8013C11.2254 14.9246 12.0112 14.8032 12.7045 14.4542C13.3979 14.1052 13.9636 13.5465 14.3211 12.8574C14.6786 12.1684 14.8097 11.3842 14.6959 10.6164C14.5797 9.83315 14.2148 9.10804 13.6549 8.54816C13.095 7.98827 12.3699 7.6233 11.5866 7.50716ZM8.88502 6.99434C9.76073 6.53996 10.7574 6.37326 11.7333 6.51798C12.7288 6.66559 13.6504 7.12946 14.362 7.84105C15.0736 8.55265 15.5374 9.47424 15.6851 10.4697C15.8298 11.4456 15.6631 12.4423 15.2087 13.318C14.7543 14.1937 14.0354 14.9039 13.1541 15.3474C12.2729 15.791 11.2742 15.9454 10.3001 15.7886C9.32609 15.6319 8.42627 15.172 7.72865 14.4744C7.03103 13.7768 6.57115 12.8769 6.41441 11.9029C6.25767 10.9288 6.41206 9.93017 6.85562 9.04893C7.29918 8.16768 8.00931 7.44873 8.88502 6.99434ZM16.7619 4.94134C16.4858 4.94134 16.2619 5.16519 16.2619 5.44134C16.2619 5.71748 16.4858 5.94134 16.7619 5.94134H16.7719C17.048 5.94134 17.2719 5.71748 17.2719 5.44134C17.2719 5.16519 17.048 4.94134 16.7719 4.94134H16.7619Z" fill="white"/>
</svg>
