<svg width="207" height="41" viewBox="0 0 207 41" fill="none" xmlns="http://www.w3.org/2000/svg">
<path d="M20.5164 40.638H20.3698C10.8932 40.6138 4.54292 38.6474 3.22401 37.4335C1.83181 36.1955 0 29.7867 0 20.3191C0 10.8756 1.83181 4.44251 3.22401 3.20443C4.54292 1.99064 10.9177 0.024276 20.3698 0H20.5164C29.9931 0.024276 36.3433 1.99064 37.6623 3.20443C39.0545 4.44251 40.8862 10.8756 40.8862 20.3191C40.8862 29.7623 39.0545 36.1955 37.6623 37.4335C36.3433 38.6717 29.9931 40.638 20.5164 40.638Z" fill="#662D91"/>
<path d="M25.186 14.1334C25.2532 14.1345 25.3205 14.1356 25.4286 14.1602C25.4843 14.2038 25.5034 14.2182 25.5268 14.2269C25.9859 14.7565 26.4223 15.3081 26.9108 15.8091C27.3519 16.2614 27.837 16.6739 28.3263 17.0753C28.8275 17.4866 29.051 17.8849 28.4589 18.4669C27.708 19.205 27.047 20.0345 26.3478 20.8251C25.6246 21.6429 24.8766 22.4405 24.1865 23.2854C23.5294 24.0899 22.9409 24.95 22.307 25.7739C21.8965 26.3077 21.4686 26.8291 21.0266 27.337C20.9032 27.4788 20.6938 27.6635 20.5685 27.2966C20.5555 27.2585 20.4656 27.2467 20.4114 27.2227C20.4184 27.2766 20.4322 27.3307 20.4303 27.3842C20.4288 27.4286 20.4073 27.5106 20.3972 27.5102C20.321 27.5072 20.2173 27.5148 20.1741 27.4696C19.882 27.1636 19.5864 26.8584 19.3223 26.5287C18.397 25.3735 17.4995 24.1957 16.5619 23.0506C15.578 21.8489 14.565 20.6709 13.5547 19.4911C13.188 19.0628 12.7963 18.6555 12.4092 18.2451C12.0695 17.885 12.0854 17.6444 12.4616 17.3277C12.9338 16.9303 13.4265 16.5503 13.8532 16.1077C14.3004 15.6438 14.6752 15.1107 15.0913 14.616C15.2769 14.3954 15.4843 14.1889 15.6901 14.3459C15.811 14.2132 15.8836 14.0634 15.9584 14.0623C16.691 14.0512 17.424 14.0615 18.1567 14.0741C18.3046 14.0767 18.4519 14.1323 18.5995 14.1329C19.9016 14.138 21.2037 14.1363 22.5685 14.1278C22.659 14.1064 22.6789 14.0863 22.691 14.0585C23.4608 14.0536 24.2306 14.0487 25.055 14.0692C25.1318 14.114 25.1573 14.1269 25.186 14.1334ZM24.0797 14.5034C23.4789 14.5633 22.878 14.6231 22.2063 14.69C22.4691 14.849 22.711 14.9953 22.9404 15.134C23.2073 15.0123 23.4631 14.8956 23.7519 14.7617C23.7726 14.7464 23.7868 14.7265 23.8337 14.6873C23.8337 14.6873 23.8753 14.6842 23.9171 14.6706C23.9454 14.6584 23.9658 14.6382 24.0352 14.5956C24.0742 14.5946 24.1132 14.5936 24.2307 14.5948C24.5468 14.5987 24.8628 14.6025 25.1759 14.6752C24.6303 14.9597 24.0848 15.2442 23.4866 15.5561C24.0566 16.1816 24.6323 16.8135 25.2022 17.439C25.4471 16.9387 25.693 16.4753 25.8986 15.9948C25.9682 15.8322 26.0063 15.5916 25.9356 15.4469C25.7888 15.1464 25.5596 14.8861 25.3599 14.5346C25.2967 14.465 25.2255 14.3298 25.1716 14.3364C24.8322 14.3781 24.4966 14.4512 24.0797 14.5034ZM13.3962 17.7202C13.553 17.7257 13.7099 17.7313 13.8906 17.7726C13.9125 17.7921 13.9378 17.8052 14.0507 17.8145C14.4143 17.8145 14.7779 17.8145 15.2 17.8145C15.0151 17.2121 15.0912 16.587 14.6512 16.1788C14.0837 16.6534 13.5537 17.0966 12.9567 17.5404C12.8258 17.6042 12.6948 17.6681 12.5639 17.732C12.5805 17.7765 12.5972 17.8211 12.6138 17.8656C12.8486 17.814 13.0834 17.7625 13.3962 17.7202ZM20.6923 18.552C20.4991 18.5863 20.306 18.6206 20.0526 18.6455C20.0126 18.64 19.9725 18.6345 19.9083 18.5929C19.886 18.5731 19.8604 18.5602 19.7467 18.5516C19.2929 18.5516 18.8392 18.5516 18.3274 18.5516C18.5688 19.29 18.8021 19.9686 19.0114 20.6546C19.1809 21.21 19.3216 21.7741 19.474 22.4167C19.4437 22.8694 19.4134 23.322 19.3189 23.788C18.9497 23.3834 18.5307 23.0133 18.2215 22.5672C17.5486 21.5961 16.9317 20.5862 16.2946 19.5963C16.2946 20.3434 16.2936 21.0785 16.2976 21.8135C16.2978 21.8494 16.3385 21.8874 16.365 21.9207C16.7295 22.3788 17.1055 22.8281 17.4576 23.2956C18.0467 24.0779 18.6161 24.8752 19.2038 25.6586C19.3976 25.917 19.6226 26.152 19.8333 26.3976C19.8398 26.1767 19.7745 26.0297 19.7427 25.8758C19.6406 25.3817 19.5461 24.886 19.4609 24.3888C19.445 24.2958 19.4861 24.193 19.5008 24.0948C19.6141 24.1408 19.7863 24.1565 19.829 24.2391C19.9279 24.4308 19.9535 24.6586 20.0283 24.8647C20.1755 25.2704 20.336 25.6713 20.4952 26.0852C20.7477 25.381 20.8901 24.6728 21.3483 24.12C21.4123 24.1432 21.4763 24.1663 21.5402 24.1895C21.3871 24.9653 21.234 25.7412 21.0692 26.5764C21.4087 26.1406 21.6914 25.7951 21.9551 25.4356C22.4641 24.7417 22.9065 23.9895 23.4793 23.3541C24.2181 22.5347 24.8783 21.7324 24.6231 20.5312C24.6171 20.5026 24.6266 20.4704 24.6307 20.4401C24.6689 20.1628 24.7075 19.8855 24.746 19.6082C23.7183 21.083 22.8408 22.6346 21.6263 23.937C21.5879 23.9148 21.5495 23.8927 21.5111 23.8705C21.5111 23.7521 21.5111 23.6337 21.5692 23.5037C21.5449 23.1139 21.5207 22.7242 21.5547 22.305C21.5448 22.2223 21.5043 22.1282 21.5303 22.0589C21.6306 21.7912 21.7789 21.5396 21.8606 21.2673C22.0904 20.5018 22.297 19.7294 22.5103 18.959C22.5675 18.7522 22.6393 18.5408 22.2821 18.5487C21.7788 18.56 21.2751 18.5531 20.6923 18.552ZM19.7488 16.9557C19.9807 17.2881 20.2126 17.6205 20.4426 17.9502C21.1374 17.1098 21.7766 16.3367 22.4394 15.5352C22.1894 15.4097 21.9934 15.3091 21.7955 15.2126C21.3921 15.0158 21.0899 14.6237 20.5565 14.6757C20.1375 14.7166 19.7477 14.6746 19.4 15.0372C19.1576 15.2899 18.7617 15.3955 18.4462 15.5607C18.8993 16.0398 19.3055 16.4693 19.7488 16.9557ZM27.3277 18.0917C26.7347 18.1634 26.1418 18.2352 25.6061 18.3C25.42 19.2882 25.2412 20.2377 25.0624 21.1873C25.0967 21.2003 25.131 21.2134 25.1653 21.2265C26.1868 20.1755 27.2082 19.1244 28.2297 18.0734C28.2049 18.0399 28.18 18.0064 28.1552 17.9729C27.907 18.0125 27.6587 18.0521 27.3277 18.0917ZM13.4075 18.6884C14.2121 19.5321 15.0167 20.3759 15.8213 21.2196C15.8538 21.2085 15.8864 21.1974 15.9189 21.1864C15.7415 20.2284 15.5641 19.2705 15.3864 18.3117C14.508 18.2242 13.6074 18.1345 12.6009 18.0342C12.9236 18.292 13.1423 18.4665 13.4075 18.6884ZM23.7044 20.0999C24.148 19.557 24.5916 19.0141 25.0449 18.4592C24.595 18.4592 24.2084 18.459 23.8219 18.4593C23.1255 18.4599 23.1263 18.4602 22.9566 19.134C22.9462 19.1753 22.8936 19.2063 22.884 19.2475C22.757 19.7933 22.6444 20.3426 22.5074 20.8858C22.3708 21.4278 22.2108 21.9639 22.0414 22.5731C22.6198 21.7367 23.1614 20.9535 23.7044 20.0999ZM18.008 21.261C18.2645 21.6377 18.521 22.0144 18.8085 22.4366C18.8185 22.3224 18.8382 22.2634 18.8261 22.2118C18.5525 21.0533 18.2777 19.8951 17.9934 18.7392C17.9757 18.6674 17.882 18.568 17.816 18.5617C17.2418 18.507 16.6659 18.4706 15.9626 18.4195C16.7042 19.4274 17.353 20.3092 18.008 21.261ZM16.2056 16.896C16.641 16.4262 17.0764 15.9564 17.5422 15.4538C17.2117 15.325 16.8613 15.2023 16.523 15.0523C16.2476 14.9301 15.9588 14.6315 15.7277 14.6766C15.5114 14.7188 15.3558 15.1048 15.1878 15.3493C15.0999 15.4775 14.9485 15.6653 14.9872 15.7603C15.2235 16.3393 15.5062 16.8994 15.7804 17.4806C15.9389 17.2567 16.0494 17.1006 16.2056 16.896ZM27.7209 17.2621C27.2628 16.8643 26.8046 16.4664 26.288 16.0177C26.1547 16.3759 25.9947 16.6924 25.9207 17.028C25.7652 17.7341 25.7837 17.7374 26.4977 17.7215C26.6661 17.7178 26.8347 17.721 27.0032 17.721C27.4219 17.721 27.8405 17.721 28.314 17.721C28.1059 17.541 27.9484 17.4048 27.7209 17.2621ZM16.8131 17.0409C16.572 17.2748 16.3309 17.5087 15.9733 17.8557C16.6733 17.8898 17.2378 17.9174 17.8148 17.9456C17.7628 17.2938 17.7187 16.7416 17.6857 16.3288C17.4288 16.5359 17.1455 16.7643 16.8131 17.0409ZM23.9747 16.9372C23.7602 16.6777 23.5458 16.4182 23.2921 16.1114C23.2396 16.6899 23.1948 17.1645 23.154 17.6394C23.1342 17.8699 23.1767 17.959 23.4697 17.9216C23.9295 17.863 24.4023 17.9061 24.8756 17.9061C24.582 17.5905 24.3009 17.2883 23.9747 16.9372ZM18.8213 16.7472C18.6948 16.585 18.5683 16.4228 18.4264 16.2409C18.3543 16.8649 18.2911 17.4128 18.226 17.9764C18.7095 17.9764 19.2196 17.9764 19.7297 17.9764C19.7606 17.9435 19.7915 17.9105 19.8224 17.8776C19.5036 17.518 19.1849 17.1585 18.8213 16.7472ZM22.4109 16.4796C21.9979 16.9578 21.5848 17.436 21.1717 17.9142C21.1998 17.9473 21.228 17.9804 21.2562 18.0135C21.764 17.9842 22.2719 17.9548 22.72 17.929C22.6646 17.3882 22.609 16.8452 22.5498 16.2675C22.4949 16.3164 22.4316 16.3729 22.4109 16.4796ZM18.49 14.614C18.3231 14.6207 18.1537 14.6487 17.9897 14.6298C17.6418 14.5897 17.2968 14.5251 16.9204 14.4658C17.1104 14.6214 17.2549 14.7425 17.4023 14.8601C17.7508 15.1379 18.18 15.1465 18.5076 14.8627C18.5611 14.8164 18.5449 14.6896 18.49 14.614Z" fill="white"/>
<path d="M10.4044 20.6915C9.97557 20.6875 9.57892 20.6697 9.18527 20.6252C9.11513 20.6173 9.03394 20.5084 9.00312 20.4286C8.98574 20.3836 9.04425 20.2803 9.0968 20.2419C9.42644 20.001 11.1918 20.0897 11.5867 20.3754C11.2679 20.7529 10.8336 20.6415 10.4044 20.6915Z" fill="white"/>
<path d="M30.9572 20.1125C31.3339 20.162 31.667 20.2115 32 20.261C31.4166 20.7705 29.7687 20.7906 29.2707 20.3795C29.7839 19.9747 30.3712 20.1607 30.9572 20.1125Z" fill="white"/>
<path d="M20.7635 10.9457C20.9708 11.5404 20.8064 12.4435 20.4378 12.5838C20.2124 11.7986 20.1499 11.0134 20.3308 10.2169C20.3494 10.135 20.4506 10.0718 20.5134 10C20.5903 10.0745 20.7197 10.1403 20.7338 10.2252C20.7709 10.4479 20.7577 10.679 20.7635 10.9457Z" fill="white"/>
<path d="M14.3966 25.5102C14.6742 25.2571 14.9111 24.9861 15.3153 25.1033C15.1007 25.8154 13.9439 26.9098 13.3841 26.8861C13.5463 26.2979 13.9823 25.9319 14.3966 25.5102Z" fill="white"/>
<path d="M20.3031 29.2254C20.3115 28.9525 20.2997 28.7206 20.3393 28.4979C20.3531 28.4203 20.4885 28.3282 20.5791 28.3147C20.6287 28.3074 20.7529 28.4493 20.7543 28.5256C20.7675 29.2436 20.7655 29.962 20.7546 30.68C20.7535 30.7493 20.6631 30.8172 20.5822 30.9305C20.0696 30.4111 20.4018 29.8019 20.3031 29.2254Z" fill="white"/>
<path d="M13.5693 13.7968C13.1767 13.4023 12.7948 13.0443 12.4466 12.6561C12.3631 12.563 12.3913 12.3697 12.3602 12.1724C13.2842 12.57 14.2296 13.5977 14.1942 14.1868C13.9752 14.0542 13.7838 13.9382 13.5693 13.7968Z" fill="white"/>
<path d="M27.3832 26.3757C27.4913 26.5448 27.5971 26.6794 27.7225 26.8389C27.238 26.942 27.238 26.942 25.7337 25.2971C25.9338 25.0288 26.0605 25.0105 26.3153 25.2577C26.6788 25.6103 27.0264 25.9793 27.3832 26.3757Z" fill="white"/>
<path d="M27.8243 12.7272C27.9877 12.5937 28.1192 12.4677 28.2735 12.3833C28.3586 12.3367 28.4819 12.3602 28.5881 12.3521C28.5819 12.4398 28.6095 12.5539 28.5645 12.6113C28.0669 13.2459 27.5685 13.8832 26.7121 14.292C26.877 13.5574 27.388 13.1878 27.8243 12.7272Z" fill="white"/>
<path d="M19.6929 23.6892C19.6569 23.2539 19.6566 22.8252 19.6552 22.353C19.6739 21.9092 19.66 21.5036 19.7212 21.1096C19.8387 20.352 19.9988 19.601 20.1693 18.835C20.6514 18.829 20.4744 19.1742 20.4737 19.3859C20.4723 19.8181 20.424 20.2501 20.3963 20.7257C20.2833 21.4176 20.1673 22.0658 20.0553 22.7147C20.0104 22.9749 19.9872 23.2398 19.9265 23.496C19.908 23.5739 19.7972 23.6299 19.6929 23.6892Z" fill="white"/>
<path d="M21.4126 22.2814C21.4137 22.6602 21.4102 23.005 21.4072 23.3906C21.3998 23.5497 21.392 23.668 21.3842 23.7863C21.3371 23.8008 21.29 23.8153 21.2429 23.8297C21.1431 23.5467 21.0169 23.2699 20.9493 22.9794C20.82 22.4237 20.7186 21.8613 20.6186 21.2993C20.5974 21.18 20.6315 21.0508 20.646 20.8725C20.6393 20.7916 20.6194 20.7716 20.5921 20.7591C20.5867 20.7206 20.5814 20.6822 20.5748 20.6145C20.6054 20.174 20.6318 19.7622 20.6725 19.3518C20.6863 19.2117 20.7363 19.0751 20.8042 18.9272C20.9826 19.5625 21.1427 20.2044 21.2638 20.8536C21.3261 21.1878 21.3188 21.5351 21.3371 21.9294C21.3435 22.0104 21.3636 22.0307 21.3915 22.0432C21.397 22.1113 21.4026 22.1793 21.4126 22.2814Z" fill="white"/>
<path d="M56.4462 18.4C56.1929 17.9333 55.8262 17.58 55.3462 17.34C54.8796 17.0867 54.3262 16.96 53.6862 16.96C52.5796 16.96 51.6929 17.3267 51.0262 18.06C50.3596 18.78 50.0262 19.7467 50.0262 20.96C50.0262 22.2533 50.3729 23.2667 51.0662 24C51.7729 24.72 52.7396 25.08 53.9662 25.08C54.8062 25.08 55.5129 24.8667 56.0862 24.44C56.6729 24.0133 57.0996 23.4 57.3662 22.6H53.0262V20.08H60.4662V23.26C60.2129 24.1133 59.7796 24.9067 59.1662 25.64C58.5662 26.3733 57.7996 26.9667 56.8662 27.42C55.9329 27.8733 54.8796 28.1 53.7062 28.1C52.3196 28.1 51.0796 27.8 49.9862 27.2C48.9062 26.5867 48.0596 25.74 47.4462 24.66C46.8462 23.58 46.5462 22.3467 46.5462 20.96C46.5462 19.5733 46.8462 18.34 47.4462 17.26C48.0596 16.1667 48.9062 15.32 49.9862 14.72C51.0662 14.1067 52.2996 13.8 53.6862 13.8C55.3662 13.8 56.7796 14.2067 57.9262 15.02C59.0862 15.8333 59.8529 16.96 60.2262 18.4H56.4462ZM72.8806 22.24C72.8806 22.56 72.8606 22.8933 72.8206 23.24H65.0806C65.1339 23.9333 65.3539 24.4667 65.7406 24.84C66.1406 25.2 66.6273 25.38 67.2006 25.38C68.0539 25.38 68.6473 25.02 68.9806 24.3H72.6206C72.4339 25.0333 72.0939 25.6933 71.6006 26.28C71.1206 26.8667 70.5139 27.3267 69.7806 27.66C69.0473 27.9933 68.2273 28.16 67.3206 28.16C66.2273 28.16 65.2539 27.9267 64.4006 27.46C63.5473 26.9933 62.8806 26.3267 62.4006 25.46C61.9206 24.5933 61.6806 23.58 61.6806 22.42C61.6806 21.26 61.9139 20.2467 62.3806 19.38C62.8606 18.5133 63.5273 17.8467 64.3806 17.38C65.2339 16.9133 66.2139 16.68 67.3206 16.68C68.4006 16.68 69.3606 16.9067 70.2006 17.36C71.0406 17.8133 71.6939 18.46 72.1606 19.3C72.6406 20.14 72.8806 21.12 72.8806 22.24ZM69.3806 21.34C69.3806 20.7533 69.1806 20.2867 68.7806 19.94C68.3806 19.5933 67.8806 19.42 67.2806 19.42C66.7073 19.42 66.2206 19.5867 65.8206 19.92C65.4339 20.2533 65.1939 20.7267 65.1006 21.34H69.3806ZM88.9248 16.72C90.3115 16.72 91.4115 17.14 92.2248 17.98C93.0515 18.82 93.4648 19.9867 93.4648 21.48V28H90.0648V21.94C90.0648 21.22 89.8715 20.6667 89.4848 20.28C89.1115 19.88 88.5915 19.68 87.9248 19.68C87.2582 19.68 86.7315 19.88 86.3448 20.28C85.9715 20.6667 85.7848 21.22 85.7848 21.94V28H82.3848V21.94C82.3848 21.22 82.1915 20.6667 81.8048 20.28C81.4315 19.88 80.9115 19.68 80.2448 19.68C79.5782 19.68 79.0515 19.88 78.6648 20.28C78.2915 20.6667 78.1048 21.22 78.1048 21.94V28H74.6848V16.84H78.1048V18.24C78.4515 17.7733 78.9048 17.4067 79.4648 17.14C80.0248 16.86 80.6582 16.72 81.3648 16.72C82.2048 16.72 82.9515 16.9 83.6048 17.26C84.2715 17.62 84.7915 18.1333 85.1648 18.8C85.5515 18.1867 86.0782 17.6867 86.7448 17.3C87.4115 16.9133 88.1382 16.72 88.9248 16.72ZM99.361 28.2557C98.6697 28.2557 98.0424 28.1255 97.4789 27.8651C96.9155 27.5999 96.468 27.2188 96.1366 26.7216C95.8051 26.2197 95.6394 25.6136 95.6394 24.9034C95.6394 24.2784 95.7625 23.7718 96.0087 23.3835C96.255 22.9905 96.584 22.6828 96.996 22.4602C97.4079 22.2377 97.8624 22.072 98.3596 21.9631C98.8615 21.8494 99.3658 21.7595 99.8724 21.6932C100.535 21.608 101.073 21.544 101.485 21.5014C101.901 21.4541 102.204 21.3759 102.394 21.267C102.588 21.1581 102.685 20.9687 102.685 20.6989V20.642C102.685 19.9413 102.493 19.3968 102.11 19.0085C101.731 18.6203 101.156 18.4261 100.384 18.4261C99.5836 18.4261 98.9562 18.6013 98.5016 18.9517C98.0471 19.3021 97.7275 19.6761 97.5428 20.0739L95.9519 19.5057C96.236 18.8428 96.6148 18.3267 97.0883 17.9574C97.5665 17.5833 98.0873 17.3229 98.6508 17.1761C99.219 17.0246 99.7777 16.9489 100.327 16.9489C100.677 16.9489 101.08 16.9915 101.534 17.0767C101.994 17.1572 102.436 17.3253 102.862 17.581C103.293 17.8366 103.651 18.2225 103.935 18.7386C104.219 19.2547 104.361 19.946 104.361 20.8125V28H102.685V26.5227H102.6C102.486 26.7595 102.297 27.0128 102.031 27.2827C101.766 27.5526 101.414 27.7822 100.973 27.9716C100.533 28.161 99.9955 28.2557 99.361 28.2557ZM99.6167 26.75C100.28 26.75 100.838 26.6198 101.293 26.3594C101.752 26.099 102.098 25.7628 102.33 25.3509C102.567 24.9389 102.685 24.5057 102.685 24.0511V22.517C102.614 22.6023 102.458 22.6804 102.216 22.7514C101.979 22.8177 101.705 22.8769 101.392 22.929C101.085 22.9763 100.784 23.0189 100.49 23.0568C100.201 23.09 99.9671 23.1184 99.7872 23.142C99.3515 23.1989 98.9444 23.2912 98.5656 23.419C98.1915 23.5421 97.8885 23.7292 97.6565 23.9801C97.4292 24.2263 97.3156 24.5625 97.3156 24.9886C97.3156 25.571 97.531 26.0114 97.9619 26.3097C98.3975 26.6032 98.9491 26.75 99.6167 26.75ZM107.42 28V17.0909H109.04V18.7955H109.182C109.409 18.2131 109.776 17.7609 110.283 17.4389C110.789 17.1122 111.398 16.9489 112.108 16.9489C112.828 16.9489 113.426 17.1122 113.905 17.4389C114.388 17.7609 114.764 18.2131 115.034 18.7955H115.148C115.427 18.232 115.846 17.7846 116.405 17.4531C116.963 17.117 117.633 16.9489 118.415 16.9489C119.39 16.9489 120.188 17.2543 120.808 17.8651C121.428 18.4711 121.739 19.4157 121.739 20.6989V28H120.062V20.6989C120.062 19.8939 119.842 19.3187 119.402 18.973C118.962 18.6274 118.443 18.4545 117.846 18.4545C117.079 18.4545 116.485 18.6866 116.064 19.1506C115.642 19.6098 115.432 20.1922 115.432 20.8977V28H113.727V20.5284C113.727 19.9081 113.526 19.4086 113.123 19.0298C112.721 18.6463 112.203 18.4545 111.568 18.4545C111.132 18.4545 110.725 18.5705 110.346 18.8026C109.972 19.0346 109.669 19.3565 109.437 19.7685C109.21 20.1757 109.096 20.6468 109.096 21.1818V28H107.42ZM129.377 28.2273C128.326 28.2273 127.419 27.9953 126.657 27.5312C125.899 27.0625 125.314 26.4091 124.903 25.571C124.495 24.7282 124.292 23.7481 124.292 22.6307C124.292 21.5133 124.495 20.5284 124.903 19.6761C125.314 18.8191 125.887 18.1515 126.621 17.6733C127.36 17.1903 128.222 16.9489 129.207 16.9489C129.775 16.9489 130.336 17.0436 130.89 17.233C131.444 17.4223 131.948 17.7301 132.403 18.1562C132.857 18.5777 133.219 19.1364 133.489 19.8324C133.759 20.5284 133.894 21.3854 133.894 22.4034V23.1136H125.485V21.6648H132.189C132.189 21.0492 132.066 20.5 131.82 20.017C131.579 19.5341 131.233 19.1529 130.783 18.8736C130.338 18.5942 129.813 18.4545 129.207 18.4545C128.539 18.4545 127.961 18.6203 127.474 18.9517C126.991 19.2784 126.619 19.7045 126.359 20.2301C126.098 20.7557 125.968 21.3191 125.968 21.9205V22.8864C125.968 23.7102 126.11 24.4086 126.394 24.9815C126.683 25.5497 127.083 25.983 127.594 26.2812C128.106 26.5748 128.7 26.7216 129.377 26.7216C129.817 26.7216 130.215 26.66 130.57 26.5369C130.93 26.4091 131.24 26.2197 131.501 25.9688C131.761 25.7131 131.962 25.3958 132.104 25.017L133.724 25.4716C133.553 26.0208 133.267 26.5038 132.864 26.9205C132.462 27.3324 131.965 27.6544 131.373 27.8864C130.781 28.1136 130.116 28.2273 129.377 28.2273ZM141.188 17.0909V18.5114H135.535V17.0909H141.188ZM137.182 14.4773H138.859V24.875C138.859 25.3485 138.927 25.7036 139.064 25.9403C139.207 26.1723 139.386 26.3286 139.604 26.4091C139.827 26.4848 140.061 26.5227 140.307 26.5227C140.492 26.5227 140.644 26.5133 140.762 26.4943C140.88 26.4706 140.975 26.4517 141.046 26.4375L141.387 27.9432C141.273 27.9858 141.115 28.0284 140.911 28.071C140.707 28.1184 140.449 28.142 140.137 28.142C139.663 28.142 139.199 28.0402 138.745 27.8366C138.295 27.633 137.921 27.3229 137.623 26.9062C137.329 26.4896 137.182 25.964 137.182 25.3295V14.4773ZM145.62 21.4375V28H143.944V13.4545H145.62V18.7955H145.762C146.018 18.232 146.401 17.7846 146.913 17.4531C147.429 17.117 148.115 16.9489 148.972 16.9489C149.716 16.9489 150.367 17.098 150.925 17.3963C151.484 17.6899 151.917 18.142 152.225 18.7528C152.538 19.3589 152.694 20.1307 152.694 21.0682V28H151.018V21.1818C151.018 20.3153 150.793 19.6454 150.343 19.1719C149.898 18.6937 149.28 18.4545 148.489 18.4545C147.94 18.4545 147.448 18.5705 147.012 18.8026C146.581 19.0346 146.24 19.3731 145.989 19.8182C145.743 20.2633 145.62 20.803 145.62 21.4375ZM156.449 32.0909C156.165 32.0909 155.912 32.0672 155.689 32.0199C155.467 31.9773 155.313 31.9347 155.227 31.892L155.654 30.4148C156.061 30.5189 156.421 30.5568 156.733 30.5284C157.046 30.5 157.323 30.3603 157.564 30.1094C157.81 29.8632 158.035 29.4631 158.239 28.9091L158.551 28.0568L154.517 17.0909H156.335L159.347 25.7841H159.46L162.472 17.0909H164.29L159.659 29.5909C159.451 30.1544 159.193 30.6207 158.885 30.9901C158.577 31.3641 158.22 31.6411 157.813 31.821C157.41 32.0009 156.956 32.0909 156.449 32.0909ZM174.23 19.5341L172.724 19.9602C172.629 19.7093 172.49 19.4654 172.305 19.2287C172.125 18.9872 171.879 18.7884 171.566 18.6321C171.254 18.4759 170.854 18.3977 170.366 18.3977C169.698 18.3977 169.142 18.5516 168.697 18.8594C168.257 19.1624 168.036 19.5483 168.036 20.017C168.036 20.4337 168.188 20.7628 168.491 21.0043C168.794 21.2457 169.268 21.447 169.911 21.608L171.531 22.0057C172.506 22.2424 173.233 22.6046 173.711 23.0923C174.189 23.5753 174.428 24.1979 174.428 24.9602C174.428 25.5852 174.249 26.1439 173.889 26.6364C173.534 27.1288 173.036 27.517 172.397 27.8011C171.758 28.0852 171.015 28.2273 170.167 28.2273C169.054 28.2273 168.134 27.9858 167.404 27.5028C166.675 27.0199 166.214 26.3144 166.019 25.3864L167.61 24.9886C167.762 25.5758 168.048 26.0161 168.47 26.3097C168.896 26.6032 169.452 26.75 170.139 26.75C170.92 26.75 171.54 26.5843 172 26.2528C172.464 25.9167 172.696 25.5142 172.696 25.0455C172.696 24.6667 172.563 24.3494 172.298 24.0938C172.033 23.8333 171.625 23.6392 171.076 23.5114L169.258 23.0852C168.259 22.8485 167.525 22.4815 167.056 21.9844C166.592 21.4825 166.36 20.8551 166.36 20.1023C166.36 19.4867 166.533 18.9422 166.879 18.4688C167.229 17.9953 167.705 17.6236 168.306 17.3537C168.912 17.0838 169.599 16.9489 170.366 16.9489C171.446 16.9489 172.293 17.1856 172.909 17.6591C173.529 18.1326 173.969 18.7576 174.23 19.5341ZM181.696 17.0909V18.5114H176.042V17.0909H181.696ZM177.69 14.4773H179.366V24.875C179.366 25.3485 179.435 25.7036 179.572 25.9403C179.714 26.1723 179.894 26.3286 180.112 26.4091C180.335 26.4848 180.569 26.5227 180.815 26.5227C181 26.5227 181.151 26.5133 181.27 26.4943C181.388 26.4706 181.483 26.4517 181.554 26.4375L181.895 27.9432C181.781 27.9858 181.622 28.0284 181.419 28.071C181.215 28.1184 180.957 28.142 180.645 28.142C180.171 28.142 179.707 28.0402 179.253 27.8366C178.803 27.633 178.429 27.3229 178.131 26.9062C177.837 26.4896 177.69 25.964 177.69 25.3295V14.4773ZM185.893 21.4375V28H184.217V17.0909H185.837V18.7955H185.979C186.234 18.2415 186.622 17.7964 187.143 17.4602C187.664 17.1193 188.337 16.9489 189.16 16.9489C189.899 16.9489 190.545 17.1004 191.099 17.4034C191.653 17.7017 192.084 18.1562 192.392 18.767C192.7 19.3731 192.854 20.1402 192.854 21.0682V28H191.177V21.1818C191.177 20.3248 190.955 19.6572 190.51 19.179C190.065 18.696 189.454 18.4545 188.677 18.4545C188.142 18.4545 187.664 18.5705 187.243 18.8026C186.826 19.0346 186.497 19.3731 186.256 19.8182C186.014 20.2633 185.893 20.803 185.893 21.4375ZM200.32 32.3182C199.51 32.3182 198.814 32.214 198.232 32.0057C197.649 31.8021 197.164 31.5322 196.776 31.196C196.392 30.8646 196.087 30.5095 195.86 30.1307L197.195 29.1932C197.346 29.392 197.538 29.6193 197.77 29.875C198.002 30.1354 198.319 30.3603 198.722 30.5497C199.129 30.7438 199.662 30.8409 200.32 30.8409C201.201 30.8409 201.927 30.6278 202.5 30.2017C203.073 29.7756 203.36 29.108 203.36 28.1989V25.983H203.218C203.094 26.1818 202.919 26.428 202.692 26.7216C202.469 27.0104 202.147 27.2685 201.726 27.4957C201.309 27.7183 200.746 27.8295 200.036 27.8295C199.155 27.8295 198.364 27.6212 197.664 27.2045C196.968 26.7879 196.416 26.1818 196.009 25.3864C195.606 24.5909 195.405 23.625 195.405 22.4886C195.405 21.3712 195.602 20.3982 195.995 19.5696C196.388 18.7363 196.934 18.0923 197.635 17.6378C198.336 17.1785 199.146 16.9489 200.064 16.9489C200.774 16.9489 201.338 17.0672 201.754 17.304C202.176 17.536 202.498 17.8011 202.72 18.0994C202.948 18.393 203.123 18.6345 203.246 18.8239H203.416V17.0909H205.036V28.3125C205.036 29.25 204.823 30.0123 204.397 30.5994C203.975 31.1913 203.407 31.6245 202.692 31.8991C201.982 32.1785 201.191 32.3182 200.32 32.3182ZM200.263 26.3239C200.935 26.3239 201.504 26.17 201.968 25.8622C202.432 25.5545 202.784 25.1117 203.026 24.5341C203.267 23.9564 203.388 23.2652 203.388 22.4602C203.388 21.6742 203.27 20.9806 203.033 20.3793C202.796 19.7779 202.446 19.3068 201.982 18.9659C201.518 18.625 200.945 18.4545 200.263 18.4545C199.553 18.4545 198.961 18.6345 198.487 18.9943C198.019 19.3542 197.666 19.8371 197.429 20.4432C197.197 21.0492 197.081 21.7216 197.081 22.4602C197.081 23.2178 197.2 23.8878 197.436 24.4702C197.678 25.0478 198.033 25.5024 198.502 25.8338C198.975 26.1605 199.562 26.3239 200.263 26.3239Z" fill="#E5E5E5"/>
</svg>
