<svg width="207" height="41" viewBox="0 0 207 41" fill="none" xmlns="http://www.w3.org/2000/svg">
<path d="M20.5164 40.819H20.3698C10.8932 40.7948 4.54292 38.8284 3.22401 37.6145C1.83181 36.3765 0 29.9677 0 20.5001C0 11.0566 1.83181 4.62347 3.22401 3.38539C4.54292 2.1716 10.9177 0.205245 20.3698 0.180969H20.5164C29.9931 0.205245 36.3433 2.1716 37.6623 3.38539C39.0545 4.62347 40.8863 11.0566 40.8863 20.5001C40.8863 29.9433 39.0545 36.3765 37.6623 37.6145C36.3433 38.8527 29.9931 40.819 20.5164 40.819Z" fill="#662D91"/>
<path d="M25.186 14.3144C25.2532 14.3155 25.3205 14.3166 25.4286 14.3413C25.4843 14.3849 25.5034 14.3992 25.5268 14.408C25.9859 14.9375 26.4223 15.4892 26.9108 15.9901C27.3519 16.4424 27.837 16.8549 28.3263 17.2564C28.8275 17.6676 29.051 18.0659 28.4589 18.648C27.708 19.386 27.047 20.2155 26.3478 21.0061C25.6246 21.8239 24.8766 22.6216 24.1865 23.4664C23.5294 24.2709 22.9409 25.131 22.307 25.955C21.8965 26.4887 21.4686 27.0101 21.0266 27.518C20.9032 27.6598 20.6938 27.8445 20.5685 27.4777C20.5555 27.4396 20.4656 27.4278 20.4114 27.4038C20.4184 27.4576 20.4322 27.5117 20.4303 27.5653C20.4288 27.6096 20.4073 27.6916 20.3972 27.6912C20.321 27.6883 20.2173 27.6959 20.1741 27.6506C19.882 27.3446 19.5864 27.0394 19.3223 26.7097C18.397 25.5545 17.4995 24.3767 16.5619 23.2316C15.578 22.0299 14.565 20.852 13.5547 19.6721C13.188 19.2438 12.7963 18.8366 12.4092 18.4262C12.0695 18.0661 12.0854 17.8254 12.4616 17.5088C12.9338 17.1113 13.4265 16.7313 13.8532 16.2887C14.3004 15.8248 14.6752 15.2917 15.0913 14.797C15.2769 14.5764 15.4843 14.3699 15.6901 14.527C15.811 14.3942 15.8836 14.2445 15.9584 14.2433C16.691 14.2322 17.424 14.2426 18.1567 14.2552C18.3046 14.2577 18.4519 14.3133 18.5995 14.3139C19.9016 14.3191 21.2037 14.3173 22.5685 14.3088C22.659 14.2875 22.6789 14.2673 22.691 14.2395C23.4608 14.2346 24.2306 14.2297 25.055 14.2503C25.1318 14.295 25.1573 14.3079 25.186 14.3144ZM24.0797 14.6844C23.4789 14.7443 22.878 14.8042 22.2063 14.8711C22.4691 15.03 22.711 15.1763 22.9404 15.3151C23.2073 15.1933 23.4631 15.0766 23.7519 14.9427C23.7726 14.9274 23.7868 14.9075 23.8337 14.8683C23.8337 14.8683 23.8753 14.8653 23.9171 14.8517C23.9454 14.8395 23.9658 14.8193 24.0352 14.7767C24.0742 14.7756 24.1132 14.7746 24.2307 14.7758C24.5468 14.7797 24.8628 14.7836 25.1759 14.8562C24.6303 15.1407 24.0848 15.4252 23.4866 15.7371C24.0566 16.3627 24.6323 16.9945 25.2022 17.62C25.4471 17.1197 25.693 16.6564 25.8986 16.1758C25.9682 16.0132 26.0063 15.7727 25.9356 15.6279C25.7888 15.3274 25.5596 15.0672 25.3599 14.7156C25.2967 14.646 25.2255 14.5108 25.1716 14.5174C24.8322 14.5591 24.4966 14.6322 24.0797 14.6844ZM13.3962 17.9012C13.553 17.9067 13.7099 17.9123 13.8906 17.9536C13.9125 17.9731 13.9378 17.9862 14.0507 17.9955C14.4143 17.9955 14.7779 17.9955 15.2 17.9955C15.0151 17.3931 15.0912 16.768 14.6512 16.3598C14.0837 16.8344 13.5537 17.2776 12.9567 17.7214C12.8258 17.7853 12.6948 17.8491 12.5639 17.913C12.5805 17.9575 12.5972 18.0021 12.6138 18.0466C12.8486 17.9951 13.0834 17.9435 13.3962 17.9012ZM20.6923 18.733C20.4991 18.7673 20.306 18.8017 20.0526 18.8265C20.0126 18.821 19.9725 18.8155 19.9083 18.7739C19.886 18.7542 19.8604 18.7412 19.7467 18.7326C19.2929 18.7326 18.8392 18.7326 18.3274 18.7326C18.5688 19.471 18.8021 20.1497 19.0114 20.8356C19.1809 21.391 19.3216 21.9552 19.474 22.5978C19.4437 23.0504 19.4134 23.503 19.3189 23.969C18.9497 23.5644 18.5307 23.1944 18.2215 22.7482C17.5486 21.7771 16.9317 20.7672 16.2946 19.7773C16.2946 20.5245 16.2936 21.2595 16.2976 21.9945C16.2978 22.0305 16.3385 22.0684 16.365 22.1017C16.7295 22.5598 17.1055 23.0092 17.4576 23.4766C18.0467 24.2589 18.6161 25.0562 19.2038 25.8397C19.3976 26.098 19.6226 26.333 19.8333 26.5787C19.8398 26.3577 19.7745 26.2107 19.7427 26.0568C19.6406 25.5628 19.5461 25.067 19.4609 24.5698C19.445 24.4768 19.4861 24.374 19.5008 24.2758C19.6141 24.3219 19.7863 24.3376 19.829 24.4202C19.9279 24.6118 19.9535 24.8397 20.0283 25.0458C20.1755 25.4515 20.336 25.8524 20.4952 26.2662C20.7477 25.562 20.8901 24.8538 21.3483 24.301C21.4123 24.3242 21.4763 24.3474 21.5402 24.3705C21.3871 25.1464 21.234 25.9222 21.0692 26.7575C21.4087 26.3217 21.6914 25.9761 21.9551 25.6166C22.4641 24.9227 22.9065 24.1705 23.4793 23.5351C24.2181 22.7157 24.8783 21.9134 24.6231 20.7122C24.6171 20.6837 24.6266 20.6514 24.6307 20.6211C24.6689 20.3438 24.7075 20.0665 24.746 19.7892C23.7183 21.264 22.8408 22.8156 21.6263 24.118C21.5879 24.0959 21.5495 24.0737 21.5111 24.0516C21.5111 23.9332 21.5111 23.8147 21.5692 23.6847C21.5449 23.295 21.5207 22.9052 21.5547 22.4861C21.5448 22.4033 21.5043 22.3092 21.5303 22.2399C21.6306 21.9723 21.7789 21.7206 21.8606 21.4484C22.0904 20.6829 22.297 19.9104 22.5103 19.14C22.5675 18.9332 22.6393 18.7218 22.2821 18.7298C21.7788 18.741 21.2751 18.7341 20.6923 18.733ZM19.7488 17.1367C19.9807 17.4691 20.2126 17.8016 20.4426 18.1312C21.1374 17.2909 21.7766 16.5178 22.4394 15.7162C22.1894 15.5907 21.9934 15.4902 21.7955 15.3936C21.3921 15.1968 21.0899 14.8048 20.5565 14.8568C20.1375 14.8976 19.7477 14.8556 19.4 15.2182C19.1576 15.471 18.7617 15.5766 18.4462 15.7417C18.8993 16.2208 19.3055 16.6504 19.7488 17.1367ZM27.3277 18.2727C26.7347 18.3444 26.1418 18.4162 25.6061 18.481C25.42 19.4692 25.2412 20.4188 25.0624 21.3683C25.0967 21.3814 25.131 21.3944 25.1653 21.4075C26.1868 20.3565 27.2082 19.3054 28.2297 18.2544C28.2049 18.2209 28.18 18.1874 28.1552 18.154C27.907 18.1935 27.6587 18.2331 27.3277 18.2727ZM13.4075 18.8694C14.2121 19.7132 15.0167 20.5569 15.8213 21.4006C15.8538 21.3895 15.8864 21.3785 15.9189 21.3674C15.7415 20.4095 15.5641 19.4516 15.3864 18.4927C14.508 18.4052 13.6074 18.3155 12.6009 18.2153C12.9236 18.473 13.1423 18.6476 13.4075 18.8694ZM23.7044 20.2809C24.148 19.738 24.5916 19.1951 25.0449 18.6403C24.595 18.6403 24.2084 18.64 23.8219 18.6403C23.1255 18.6409 23.1263 18.6412 22.9566 19.315C22.9462 19.3564 22.8936 19.3873 22.884 19.4286C22.757 19.9743 22.6444 20.5236 22.5074 21.0668C22.3708 21.6088 22.2108 22.1449 22.0414 22.7541C22.6198 21.9177 23.1614 21.1345 23.7044 20.2809ZM18.008 21.4421C18.2645 21.8188 18.521 22.1954 18.8085 22.6176C18.8185 22.5035 18.8382 22.4444 18.8261 22.3929C18.5525 21.2344 18.2777 20.0761 17.9934 18.9203C17.9757 18.8485 17.882 18.7491 17.816 18.7428C17.2418 18.688 16.6659 18.6517 15.9626 18.6005C16.7042 19.6085 17.353 20.4902 18.008 21.4421ZM16.2056 17.077C16.641 16.6072 17.0764 16.1374 17.5422 15.6348C17.2117 15.506 16.8613 15.3833 16.523 15.2333C16.2476 15.1111 15.9588 14.8125 15.7277 14.8576C15.5114 14.8998 15.3558 15.2858 15.1878 15.5304C15.0999 15.6585 14.9485 15.8464 14.9872 15.9414C15.2235 16.5204 15.5062 17.0804 15.7804 17.6616C15.9389 17.4377 16.0494 17.2817 16.2056 17.077ZM27.7209 17.4432C27.2628 17.0453 26.8046 16.6474 26.288 16.1988C26.1547 16.5569 25.9947 16.8735 25.9207 17.209C25.7652 17.9151 25.7837 17.9184 26.4977 17.9025C26.6661 17.8988 26.8347 17.902 27.0032 17.902C27.4219 17.902 27.8405 17.902 28.314 17.902C28.1059 17.722 27.9484 17.5858 27.7209 17.4432ZM16.8131 17.222C16.572 17.4558 16.3309 17.6897 15.9733 18.0367C16.6733 18.0709 17.2378 18.0984 17.8148 18.1266C17.7628 17.4748 17.7187 16.9226 17.6857 16.5099C17.4288 16.7169 17.1455 16.9454 16.8131 17.222ZM23.9747 17.1182C23.7602 16.8587 23.5458 16.5993 23.2921 16.2924C23.2396 16.871 23.1948 17.3455 23.154 17.8204C23.1342 18.0509 23.1767 18.14 23.4697 18.1027C23.9295 18.0441 24.4023 18.0871 24.8756 18.0871C24.582 17.7715 24.3009 17.4693 23.9747 17.1182ZM18.8213 16.9282C18.6948 16.766 18.5683 16.6039 18.4264 16.4219C18.3543 17.046 18.2911 17.5939 18.226 18.1575C18.7095 18.1575 19.2196 18.1575 19.7297 18.1575C19.7606 18.1245 19.7915 18.0916 19.8224 18.0586C19.5036 17.6991 19.1849 17.3395 18.8213 16.9282ZM22.4109 16.6606C21.9979 17.1388 21.5848 17.617 21.1717 18.0952C21.1998 18.1283 21.228 18.1615 21.2562 18.1946C21.764 18.1652 22.2719 18.1359 22.72 18.11C22.6646 17.5693 22.609 17.0262 22.5498 16.4485C22.4949 16.4975 22.4316 16.5539 22.4109 16.6606ZM18.49 14.795C18.3231 14.8018 18.1537 14.8297 17.9897 14.8108C17.6418 14.7707 17.2968 14.7061 16.9204 14.6468C17.1104 14.8025 17.2549 14.9236 17.4023 15.0411C17.7508 15.3189 18.18 15.3275 18.5076 15.0437C18.5611 14.9974 18.5449 14.8706 18.49 14.795Z" fill="white"/>
<path d="M10.4044 20.8726C9.97557 20.8686 9.57892 20.8507 9.18527 20.8063C9.11513 20.7984 9.03394 20.6894 9.00312 20.6096C8.98574 20.5646 9.04425 20.4613 9.0968 20.4229C9.42644 20.1821 11.1918 20.2707 11.5867 20.5564C11.2679 20.9339 10.8336 20.8225 10.4044 20.8726Z" fill="white"/>
<path d="M30.9572 20.2936C31.3339 20.3432 31.667 20.3927 32 20.4422C31.4166 20.9517 29.7687 20.9718 29.2707 20.5607C29.7839 20.1559 30.3712 20.3418 30.9572 20.2936Z" fill="white"/>
<path d="M20.7635 11.1267C20.9708 11.7213 20.8064 12.6244 20.4378 12.7648C20.2124 11.9796 20.1499 11.1944 20.3308 10.3978C20.3494 10.3159 20.4506 10.2528 20.5134 10.181C20.5903 10.2555 20.7197 10.3213 20.7338 10.4062C20.7709 10.6289 20.7577 10.86 20.7635 11.1267Z" fill="white"/>
<path d="M14.3966 25.6911C14.6742 25.438 14.9111 25.167 15.3153 25.2842C15.1007 25.9963 13.9439 27.0907 13.3841 27.067C13.5463 26.4788 13.9823 26.1128 14.3966 25.6911Z" fill="white"/>
<path d="M20.3031 29.4064C20.3115 29.1335 20.2997 28.9016 20.3393 28.6789C20.3531 28.6013 20.4885 28.5092 20.5791 28.4958C20.6287 28.4884 20.7529 28.6303 20.7543 28.7066C20.7675 29.4246 20.7655 30.143 20.7546 30.8611C20.7535 30.9303 20.6631 30.9983 20.5822 31.1116C20.0696 30.5921 20.4018 29.9829 20.3031 29.4064Z" fill="white"/>
<path d="M13.5693 13.9781C13.1767 13.5835 12.7948 13.2255 12.4466 12.8373C12.3631 12.7442 12.3913 12.5509 12.3602 12.3536C13.2842 12.7512 14.2296 13.7789 14.1942 14.3681C13.9752 14.2354 13.7838 14.1194 13.5693 13.9781Z" fill="white"/>
<path d="M27.3832 26.5568C27.4913 26.7258 27.5971 26.8604 27.7225 27.0199C27.238 27.123 27.238 27.123 25.7337 25.4782C25.9338 25.2099 26.0605 25.1915 26.3153 25.4387C26.6788 25.7913 27.0264 26.1603 27.3832 26.5568Z" fill="white"/>
<path d="M27.8243 12.9084C27.9877 12.7749 28.1192 12.6488 28.2735 12.5644C28.3586 12.5179 28.4819 12.5413 28.5881 12.5332C28.5819 12.621 28.6095 12.7351 28.5645 12.7924C28.0669 13.4271 27.5685 14.0644 26.7121 14.4731C26.877 13.7386 27.388 13.3689 27.8243 12.9084Z" fill="white"/>
<path d="M19.6929 23.8702C19.6569 23.4348 19.6566 23.0061 19.6552 22.534C19.6739 22.0902 19.66 21.6846 19.7212 21.2906C19.8387 20.533 19.9988 19.782 20.1693 19.016C20.6514 19.01 20.4744 19.3552 20.4737 19.5669C20.4723 19.9991 20.424 20.4311 20.3963 20.9067C20.2833 21.5986 20.1673 22.2467 20.0553 22.8956C20.0104 23.1559 19.9872 23.4207 19.9265 23.677C19.908 23.7548 19.7972 23.8108 19.6929 23.8702Z" fill="white"/>
<path d="M21.4126 22.4624C21.4137 22.8412 21.4102 23.186 21.4072 23.5716C21.3998 23.7307 21.392 23.8491 21.3842 23.9674C21.3371 23.9818 21.29 23.9963 21.2429 24.0107C21.1431 23.7278 21.0169 23.4509 20.9493 23.1604C20.82 22.6048 20.7186 22.0423 20.6186 21.4803C20.5974 21.361 20.6315 21.2318 20.646 21.0536C20.6393 20.9726 20.6194 20.9526 20.5921 20.9401C20.5867 20.9017 20.5814 20.8632 20.5748 20.7955C20.6054 20.355 20.6318 19.9432 20.6725 19.5329C20.6863 19.3927 20.7363 19.2561 20.8042 19.1083C20.9826 19.7435 21.1427 20.3854 21.2638 21.0346C21.3261 21.3689 21.3188 21.7161 21.3371 22.1105C21.3435 22.1915 21.3636 22.2117 21.3915 22.2243C21.397 22.2923 21.4026 22.3604 21.4126 22.4624Z" fill="white"/>
<path d="M56.4462 18.581C56.1929 18.1143 55.8262 17.761 55.3462 17.521C54.8796 17.2676 54.3262 17.141 53.6862 17.141C52.5796 17.141 51.6929 17.5076 51.0262 18.241C50.3596 18.961 50.0262 19.9276 50.0262 21.141C50.0262 22.4343 50.3729 23.4476 51.0662 24.181C51.7729 24.901 52.7396 25.261 53.9662 25.261C54.8062 25.261 55.5129 25.0476 56.0862 24.621C56.6729 24.1943 57.0996 23.581 57.3662 22.781H53.0262V20.261H60.4662V23.441C60.2129 24.2943 59.7796 25.0876 59.1662 25.821C58.5662 26.5543 57.7996 27.1476 56.8662 27.601C55.9329 28.0543 54.8796 28.281 53.7062 28.281C52.3196 28.281 51.0796 27.981 49.9862 27.381C48.9062 26.7676 48.0596 25.921 47.4462 24.841C46.8462 23.761 46.5462 22.5276 46.5462 21.141C46.5462 19.7543 46.8462 18.521 47.4462 17.441C48.0596 16.3476 48.9062 15.501 49.9862 14.901C51.0662 14.2876 52.2996 13.981 53.6862 13.981C55.3662 13.981 56.7796 14.3876 57.9262 15.201C59.0862 16.0143 59.8529 17.141 60.2262 18.581H56.4462ZM72.8806 22.421C72.8806 22.741 72.8606 23.0743 72.8206 23.421H65.0806C65.1339 24.1143 65.3539 24.6476 65.7406 25.021C66.1406 25.381 66.6273 25.561 67.2006 25.561C68.0539 25.561 68.6473 25.201 68.9806 24.481H72.6206C72.4339 25.2143 72.0939 25.8743 71.6006 26.461C71.1206 27.0476 70.5139 27.5076 69.7806 27.841C69.0473 28.1743 68.2273 28.341 67.3206 28.341C66.2273 28.341 65.2539 28.1076 64.4006 27.641C63.5473 27.1743 62.8806 26.5076 62.4006 25.641C61.9206 24.7743 61.6806 23.761 61.6806 22.601C61.6806 21.441 61.9139 20.4276 62.3806 19.561C62.8606 18.6943 63.5273 18.0276 64.3806 17.561C65.2339 17.0943 66.2139 16.861 67.3206 16.861C68.4006 16.861 69.3606 17.0876 70.2006 17.541C71.0406 17.9943 71.6939 18.641 72.1606 19.481C72.6406 20.321 72.8806 21.301 72.8806 22.421ZM69.3806 21.521C69.3806 20.9343 69.1806 20.4676 68.7806 20.121C68.3806 19.7743 67.8806 19.601 67.2806 19.601C66.7073 19.601 66.2206 19.7676 65.8206 20.101C65.4339 20.4343 65.1939 20.9076 65.1006 21.521H69.3806ZM88.9248 16.901C90.3115 16.901 91.4115 17.321 92.2248 18.161C93.0515 19.001 93.4648 20.1676 93.4648 21.661V28.181H90.0648V22.121C90.0648 21.401 89.8715 20.8476 89.4848 20.461C89.1115 20.061 88.5915 19.861 87.9248 19.861C87.2582 19.861 86.7315 20.061 86.3448 20.461C85.9715 20.8476 85.7848 21.401 85.7848 22.121V28.181H82.3848V22.121C82.3848 21.401 82.1915 20.8476 81.8048 20.461C81.4315 20.061 80.9115 19.861 80.2448 19.861C79.5782 19.861 79.0515 20.061 78.6648 20.461C78.2915 20.8476 78.1048 21.401 78.1048 22.121V28.181H74.6848V17.021H78.1048V18.421C78.4515 17.9543 78.9048 17.5876 79.4648 17.321C80.0248 17.041 80.6582 16.901 81.3648 16.901C82.2048 16.901 82.9515 17.081 83.6048 17.441C84.2715 17.801 84.7915 18.3143 85.1648 18.981C85.5515 18.3676 86.0782 17.8676 86.7448 17.481C87.4115 17.0943 88.1382 16.901 88.9248 16.901ZM99.361 28.4367C98.6697 28.4367 98.0424 28.3064 97.4789 28.046C96.9155 27.7809 96.468 27.3997 96.1366 26.9026C95.8051 26.4007 95.6394 25.7946 95.6394 25.0844C95.6394 24.4594 95.7625 23.9527 96.0087 23.5645C96.255 23.1715 96.584 22.8637 96.996 22.6412C97.4079 22.4187 97.8624 22.2529 98.3596 22.144C98.8615 22.0304 99.3658 21.9404 99.8724 21.8742C100.535 21.7889 101.073 21.725 101.485 21.6824C101.901 21.635 102.204 21.5569 102.394 21.448C102.588 21.3391 102.685 21.1497 102.685 20.8798V20.823C102.685 20.1223 102.493 19.5777 102.11 19.1895C101.731 18.8012 101.156 18.6071 100.384 18.6071C99.5836 18.6071 98.9562 18.7823 98.5016 19.1327C98.0471 19.4831 97.7275 19.8571 97.5428 20.2548L95.9519 19.6867C96.236 19.0238 96.6148 18.5077 97.0883 18.1384C97.5665 17.7643 98.0873 17.5039 98.6508 17.3571C99.219 17.2056 99.7777 17.1298 100.327 17.1298C100.677 17.1298 101.08 17.1724 101.534 17.2577C101.994 17.3382 102.436 17.5063 102.862 17.7619C103.293 18.0176 103.651 18.4035 103.935 18.9196C104.219 19.4357 104.361 20.127 104.361 20.9935V28.181H102.685V26.7037H102.6C102.486 26.9404 102.297 27.1938 102.031 27.4636C101.766 27.7335 101.414 27.9632 100.973 28.1526C100.533 28.342 99.9955 28.4367 99.361 28.4367ZM99.6167 26.931C100.28 26.931 100.838 26.8008 101.293 26.5403C101.752 26.2799 102.098 25.9438 102.33 25.5318C102.567 25.1199 102.685 24.6867 102.685 24.2321V22.698C102.614 22.7832 102.458 22.8614 102.216 22.9324C101.979 22.9987 101.705 23.0579 101.392 23.1099C101.085 23.1573 100.784 23.1999 100.49 23.2378C100.201 23.2709 99.9671 23.2993 99.7872 23.323C99.3515 23.3798 98.9444 23.4722 98.5656 23.6C98.1915 23.7231 97.8885 23.9101 97.6565 24.1611C97.4292 24.4073 97.3156 24.7435 97.3156 25.1696C97.3156 25.752 97.531 26.1923 97.9619 26.4906C98.3975 26.7842 98.9491 26.931 99.6167 26.931ZM107.42 28.181V17.2719H109.04V18.9764H109.182C109.409 18.394 109.776 17.9419 110.283 17.6199C110.789 17.2932 111.398 17.1298 112.108 17.1298C112.828 17.1298 113.426 17.2932 113.905 17.6199C114.388 17.9419 114.764 18.394 115.034 18.9764H115.148C115.427 18.413 115.846 17.9655 116.405 17.6341C116.963 17.2979 117.633 17.1298 118.415 17.1298C119.39 17.1298 120.188 17.4352 120.808 18.046C121.428 18.6521 121.739 19.5967 121.739 20.8798V28.181H120.062V20.8798C120.062 20.0749 119.842 19.4996 119.402 19.154C118.962 18.8083 118.443 18.6355 117.846 18.6355C117.079 18.6355 116.485 18.8675 116.064 19.3315C115.642 19.7908 115.432 20.3732 115.432 21.0787V28.181H113.727V20.7094C113.727 20.0891 113.526 19.5896 113.123 19.2108C112.721 18.8273 112.203 18.6355 111.568 18.6355C111.132 18.6355 110.725 18.7515 110.346 18.9835C109.972 19.2155 109.669 19.5375 109.437 19.9494C109.21 20.3566 109.096 20.8277 109.096 21.3628V28.181H107.42ZM129.377 28.4082C128.326 28.4082 127.419 28.1762 126.657 27.7122C125.899 27.2435 125.314 26.5901 124.903 25.752C124.495 24.9092 124.292 23.9291 124.292 22.8117C124.292 21.6942 124.495 20.7094 124.903 19.8571C125.314 19.0001 125.887 18.3325 126.621 17.8543C127.36 17.3713 128.222 17.1298 129.207 17.1298C129.775 17.1298 130.336 17.2245 130.89 17.4139C131.444 17.6033 131.948 17.9111 132.403 18.3372C132.857 18.7586 133.219 19.3173 133.489 20.0134C133.759 20.7094 133.894 21.5664 133.894 22.5844V23.2946H125.485V21.8457H132.189C132.189 21.2302 132.066 20.681 131.82 20.198C131.579 19.7151 131.233 19.3339 130.783 19.0545C130.338 18.7752 129.813 18.6355 129.207 18.6355C128.539 18.6355 127.961 18.8012 127.474 19.1327C126.991 19.4594 126.619 19.8855 126.359 20.4111C126.098 20.9367 125.968 21.5001 125.968 22.1014V23.0673C125.968 23.8912 126.11 24.5896 126.394 25.1625C126.683 25.7307 127.083 26.1639 127.594 26.4622C128.106 26.7558 128.7 26.9026 129.377 26.9026C129.817 26.9026 130.215 26.841 130.57 26.7179C130.93 26.5901 131.24 26.4007 131.501 26.1497C131.761 25.894 131.962 25.5768 132.104 25.198L133.724 25.6526C133.553 26.2018 133.267 26.6848 132.864 27.1014C132.462 27.5134 131.965 27.8353 131.373 28.0673C130.781 28.2946 130.116 28.4082 129.377 28.4082ZM141.188 17.2719V18.6923H135.535V17.2719H141.188ZM137.182 14.6582H138.859V25.056C138.859 25.5295 138.927 25.8846 139.064 26.1213C139.207 26.3533 139.386 26.5096 139.604 26.5901C139.827 26.6658 140.061 26.7037 140.307 26.7037C140.492 26.7037 140.644 26.6942 140.762 26.6753C140.88 26.6516 140.975 26.6327 141.046 26.6185L141.387 28.1242C141.273 28.1668 141.115 28.2094 140.911 28.252C140.707 28.2993 140.449 28.323 140.137 28.323C139.663 28.323 139.199 28.2212 138.745 28.0176C138.295 27.814 137.921 27.5039 137.623 27.0872C137.329 26.6706 137.182 26.145 137.182 25.5105V14.6582ZM145.62 21.6185V28.181H143.944V13.6355H145.62V18.9764H145.762C146.018 18.413 146.401 17.9655 146.913 17.6341C147.429 17.2979 148.115 17.1298 148.972 17.1298C149.716 17.1298 150.367 17.279 150.925 17.5773C151.484 17.8708 151.917 18.323 152.225 18.9338C152.538 19.5399 152.694 20.3117 152.694 21.2492V28.181H151.018V21.3628C151.018 20.4963 150.793 19.8263 150.343 19.3528C149.898 18.8746 149.28 18.6355 148.489 18.6355C147.94 18.6355 147.448 18.7515 147.012 18.9835C146.581 19.2155 146.24 19.5541 145.989 19.9992C145.743 20.4442 145.62 20.984 145.62 21.6185ZM156.449 32.2719C156.165 32.2719 155.912 32.2482 155.689 32.2009C155.467 32.1582 155.313 32.1156 155.227 32.073L155.654 30.5957C156.061 30.6999 156.421 30.7378 156.733 30.7094C157.046 30.681 157.323 30.5413 157.564 30.2903C157.81 30.0441 158.035 29.644 158.239 29.0901L158.551 28.2378L154.517 17.2719H156.335L159.347 25.9651H159.46L162.472 17.2719H164.29L159.659 29.7719C159.451 30.3353 159.193 30.8017 158.885 31.171C158.577 31.5451 158.22 31.8221 157.813 32.002C157.41 32.1819 156.956 32.2719 156.449 32.2719ZM174.23 19.7151L172.724 20.1412C172.629 19.8902 172.49 19.6464 172.305 19.4097C172.125 19.1682 171.879 18.9693 171.566 18.8131C171.254 18.6568 170.854 18.5787 170.366 18.5787C169.698 18.5787 169.142 18.7326 168.697 19.0403C168.257 19.3434 168.036 19.7293 168.036 20.198C168.036 20.6147 168.188 20.9438 168.491 21.1852C168.794 21.4267 169.268 21.6279 169.911 21.7889L171.531 22.1867C172.506 22.4234 173.233 22.7856 173.711 23.2733C174.189 23.7563 174.428 24.3789 174.428 25.1412C174.428 25.7662 174.249 26.3249 173.889 26.8173C173.534 27.3098 173.036 27.698 172.397 27.9821C171.758 28.2662 171.015 28.4082 170.167 28.4082C169.054 28.4082 168.134 28.1668 167.404 27.6838C166.675 27.2009 166.214 26.4954 166.019 25.5673L167.61 25.1696C167.762 25.7567 168.048 26.1971 168.47 26.4906C168.896 26.7842 169.452 26.931 170.139 26.931C170.92 26.931 171.54 26.7652 172 26.4338C172.464 26.0976 172.696 25.6952 172.696 25.2264C172.696 24.8476 172.563 24.5304 172.298 24.2747C172.033 24.0143 171.625 23.8202 171.076 23.6923L169.258 23.2662C168.259 23.0295 167.525 22.6625 167.056 22.1653C166.592 21.6635 166.36 21.0361 166.36 20.2832C166.36 19.6677 166.533 19.1232 166.879 18.6497C167.229 18.1762 167.705 17.8045 168.306 17.5347C168.912 17.2648 169.599 17.1298 170.366 17.1298C171.446 17.1298 172.293 17.3666 172.909 17.8401C173.529 18.3135 173.969 18.9385 174.23 19.7151ZM181.696 17.2719V18.6923H176.042V17.2719H181.696ZM177.69 14.6582H179.366V25.056C179.366 25.5295 179.435 25.8846 179.572 26.1213C179.714 26.3533 179.894 26.5096 180.112 26.5901C180.335 26.6658 180.569 26.7037 180.815 26.7037C181 26.7037 181.151 26.6942 181.27 26.6753C181.388 26.6516 181.483 26.6327 181.554 26.6185L181.895 28.1242C181.781 28.1668 181.622 28.2094 181.419 28.252C181.215 28.2993 180.957 28.323 180.645 28.323C180.171 28.323 179.707 28.2212 179.253 28.0176C178.803 27.814 178.429 27.5039 178.131 27.0872C177.837 26.6706 177.69 26.145 177.69 25.5105V14.6582ZM185.893 21.6185V28.181H184.217V17.2719H185.837V18.9764H185.979C186.234 18.4224 186.622 17.9774 187.143 17.6412C187.664 17.3003 188.337 17.1298 189.16 17.1298C189.899 17.1298 190.545 17.2813 191.099 17.5844C191.653 17.8827 192.084 18.3372 192.392 18.948C192.7 19.5541 192.854 20.3211 192.854 21.2492V28.181H191.177V21.3628C191.177 20.5058 190.955 19.8382 190.51 19.3599C190.065 18.877 189.454 18.6355 188.677 18.6355C188.142 18.6355 187.664 18.7515 187.243 18.9835C186.826 19.2155 186.497 19.5541 186.256 19.9992C186.014 20.4442 185.893 20.984 185.893 21.6185ZM200.32 32.4992C199.51 32.4992 198.814 32.395 198.232 32.1867C197.649 31.9831 197.164 31.7132 196.776 31.377C196.392 31.0456 196.087 30.6904 195.86 30.3117L197.195 29.3742C197.346 29.573 197.538 29.8003 197.77 30.056C198.002 30.3164 198.319 30.5413 198.722 30.7307C199.129 30.9248 199.662 31.0219 200.32 31.0219C201.201 31.0219 201.927 30.8088 202.5 30.3827C203.073 29.9565 203.36 29.2889 203.36 28.3798V26.1639H203.218C203.094 26.3628 202.919 26.609 202.692 26.9026C202.469 27.1914 202.147 27.4494 201.726 27.6767C201.309 27.8992 200.746 28.0105 200.036 28.0105C199.155 28.0105 198.364 27.8022 197.664 27.3855C196.968 26.9688 196.416 26.3628 196.009 25.5673C195.606 24.7719 195.405 23.806 195.405 22.6696C195.405 21.5522 195.602 20.5792 195.995 19.7506C196.388 18.9172 196.934 18.2733 197.635 17.8188C198.336 17.3595 199.146 17.1298 200.064 17.1298C200.774 17.1298 201.338 17.2482 201.754 17.4849C202.176 17.717 202.498 17.9821 202.72 18.2804C202.948 18.574 203.123 18.8154 203.246 19.0048H203.416V17.2719H205.036V28.4935C205.036 29.431 204.823 30.1933 204.397 30.7804C203.975 31.3723 203.407 31.8055 202.692 32.0801C201.982 32.3595 201.191 32.4992 200.32 32.4992ZM200.263 26.5048C200.935 26.5048 201.504 26.351 201.968 26.0432C202.432 25.7354 202.784 25.2927 203.026 24.7151C203.267 24.1374 203.388 23.4461 203.388 22.6412C203.388 21.8552 203.27 21.1616 203.033 20.5602C202.796 19.9589 202.446 19.4878 201.982 19.1469C201.518 18.806 200.945 18.6355 200.263 18.6355C199.553 18.6355 198.961 18.8154 198.487 19.1753C198.019 19.5351 197.666 20.0181 197.429 20.6242C197.197 21.2302 197.081 21.9026 197.081 22.6412C197.081 23.3988 197.2 24.0688 197.436 24.6511C197.678 25.2288 198.033 25.6833 198.502 26.0148C198.975 26.3415 199.562 26.5048 200.263 26.5048Z" fill="black"/>
</svg>
