<svg width="50" height="63" viewBox="0 0 50 63" fill="none" xmlns="http://www.w3.org/2000/svg">
<path d="M37.2375 39.5188C36.0292 40.6921 34.671 41.6946 33.1969 42.4897V43.6185C33.1969 48.4041 29.5198 52.2974 25.0001 52.2974C20.4803 52.2974 16.8033 48.4041 16.8033 43.6185V42.4897C15.3291 41.6946 13.9709 40.6921 12.7629 39.5188C5.97585 39.5504 0.463684 45.4058 0.463684 52.5993V62.0365H49.5367V52.5993C49.5366 45.4058 44.0243 39.5504 37.2375 39.5188Z" fill="black"/>
<path d="M28.249 44.2587C28.2266 44.2629 28.2043 44.2674 28.1819 44.2716C28.0567 44.2951 27.9314 44.3171 27.8056 44.3378C27.7587 44.3456 27.7118 44.3528 27.6649 44.3601C27.5471 44.3784 27.4291 44.3967 27.3108 44.4127C27.2569 44.42 27.2026 44.4257 27.1484 44.4325C26.9705 44.4548 26.7923 44.4744 26.6134 44.4911C26.5124 44.5005 26.4112 44.5098 26.3097 44.5175C26.2338 44.5233 26.1577 44.5282 26.0816 44.5329C25.9651 44.5402 25.8484 44.5462 25.7314 44.5511C25.6688 44.5536 25.6065 44.5567 25.544 44.5586C25.3633 44.5644 25.182 44.568 25.0001 44.568C24.8181 44.568 24.6368 44.5642 24.4561 44.5586C24.3935 44.5567 24.3312 44.5536 24.2687 44.5511C24.1517 44.546 24.0349 44.5402 23.9185 44.5329C23.8424 44.5281 23.7664 44.5233 23.6904 44.5175C23.589 44.5099 23.4878 44.5007 23.3867 44.4911C23.2078 44.4744 23.0296 44.4548 22.8517 44.4325C22.7976 44.4257 22.7432 44.42 22.6893 44.4127C22.571 44.3967 22.4531 44.3784 22.3352 44.3601C22.2883 44.3527 22.2414 44.3455 22.1946 44.3378C22.0689 44.3172 21.9435 44.2951 21.8182 44.2716C21.7958 44.2674 21.7735 44.2629 21.7512 44.2587C21.2462 44.1618 20.7454 44.0448 20.2503 43.9023C20.3895 46.5484 22.4666 48.6556 24.9999 48.6556C27.5333 48.6556 29.6104 46.5484 29.7496 43.9023C29.2547 44.0447 28.7539 44.1618 28.249 44.2587Z" fill="black"/>
<path d="M46.9847 17.2596C45.4866 12.7284 42.7142 8.67739 39.0859 5.75391C35.0079 2.46834 30.1371 0.731567 25.0001 0.731567C19.863 0.731567 14.9923 2.46834 10.9144 5.75391C7.286 8.67739 4.51364 12.7283 3.01539 17.2596C1.28893 17.6923 0 19.3368 0 21.2951V29.4673C0 31.7544 1.75733 33.6151 3.91734 33.6151H8.63487C7.51014 31.1186 6.87936 28.3265 6.87936 25.3812C6.87936 22.4359 7.51014 19.6438 8.63498 17.1474H6.74388C8.09071 13.8186 10.2581 10.8595 12.9974 8.65224C16.4714 5.85317 20.6219 4.37359 25.0001 4.37359C29.3782 4.37359 33.5287 5.85305 37.0029 8.65224C39.7421 10.8593 41.9094 13.8186 43.2562 17.1474H41.3651C42.49 19.6438 43.1208 22.4359 43.1208 25.3812C43.1208 28.3265 42.4901 31.1186 41.3651 33.6151H46.0827C48.2427 33.6151 50 31.7544 50 29.4673V21.2951C50 19.3368 48.7112 17.6923 46.9847 17.2596Z" fill="black"/>
<path d="M25 9.83667C19.4885 9.83667 14.6775 13.0697 12.1675 17.8383C12.5433 17.8865 12.9229 17.9112 13.3051 17.9112C15.5534 17.9112 17.726 17.0538 19.4225 15.4968L20.6332 14.3859L21.7655 15.5858C24.0914 18.0503 27.1845 19.4077 30.475 19.4077C32.9708 19.4077 35.394 18.603 37.4326 17.1235C34.832 12.7497 30.2316 9.83667 25 9.83667Z" fill="black"/>
<path d="M23.5414 32.5633H26.4585C27.3536 32.5633 28.1497 33.0088 28.6617 33.7012L37.4305 33.6419C38.8553 31.2473 39.681 28.4144 39.681 25.3812C39.681 23.6576 39.4142 21.9987 38.9228 20.448C36.412 22.1376 33.484 23.0498 30.4749 23.0498C26.7739 23.0498 23.2681 21.7076 20.4528 19.2407C18.352 20.7409 15.8641 21.5532 13.305 21.5532C12.4706 21.5532 11.6446 21.4659 10.8341 21.2976C10.4989 22.5994 10.319 23.9684 10.319 25.3813C10.319 33.9526 16.9048 40.9258 24.9999 40.9258C28.5768 40.9258 31.8585 39.5637 34.408 37.3045L28.6666 37.3432C28.1546 38.0393 27.3563 38.4876 26.4584 38.4876H23.5413C21.9962 38.4876 20.7437 37.1614 20.7437 35.5255C20.7437 33.8895 21.9962 32.5633 23.5414 32.5633Z" fill="black"/>
</svg>
