<svg width="50" height="63" viewBox="0 0 50 63" fill="none" xmlns="http://www.w3.org/2000/svg">
<path d="M37.1899 27.9677C37.1865 27.9118 37.1854 27.856 37.181 27.8015C37.1441 25.6806 36.8558 23.9667 35.5553 23.2602C34.181 22.5136 32.9698 22.5036 32.0815 22.9464C32.0234 22.9765 31.8715 23.233 31.8134 23.2803C31.7541 23.3276 31.4424 23.1943 31.3251 23.2301C29.3754 23.587 28.7318 25.9429 28.8737 27.78C29.3396 28.8233 29.4871 30.1388 29.5307 31.4987C30.2569 33.1238 31.5039 34.3719 32.9921 34.3719C34.9798 34.3719 36.5541 32.2195 37.0446 29.8765C37.2323 29.8493 37.3877 29.6673 37.4022 29.418L37.4636 28.4922C37.4793 28.25 37.3608 28.0423 37.1899 27.9677ZM32.9888 33.6554C30.9374 33.6554 29.4033 30.8682 29.4033 28.3733C29.4033 28.2558 29.4111 28.1411 29.4178 28.0265C30.2726 27.6252 31.915 26.7869 32.0949 26.3455C32.8413 27.3401 35.4782 27.8989 36.6368 28.0867C36.6424 28.1813 36.6491 28.2773 36.6491 28.3733C36.6469 30.8166 35.0491 33.6554 32.9888 33.6554Z" fill="black"/>
<path d="M10.7721 28.4707L10.8335 29.3965C10.8514 29.6573 11.019 29.845 11.2179 29.8593C11.6972 32.2081 13.2447 34.3705 15.2056 34.3705C16.7442 34.3705 18.0268 33.0779 18.7598 31.4113C18.7442 30.2463 18.9833 29.0497 19.5017 28.0594C19.4693 28.0294 19.4458 27.9849 19.4067 27.9677C19.4034 27.9118 19.4023 27.856 19.3978 27.8015C19.3609 25.6806 19.0727 23.9667 17.7721 23.2602C16.3978 22.5136 15.1866 22.5036 14.2984 22.9464C14.2403 22.9765 14.0894 23.233 14.0302 23.2803C13.971 23.3276 13.6592 23.1943 13.5419 23.2301C11.5922 23.587 10.9486 25.9443 11.0905 27.7814C11.0861 27.833 11.0838 27.8846 11.0805 27.9362C10.8894 27.995 10.7542 28.2171 10.7721 28.4707ZM11.6324 28.0279C12.4872 27.6267 14.1296 26.7884 14.3084 26.347C15.0548 27.3415 17.6928 27.9004 18.8514 28.0881C18.857 28.1827 18.8637 28.2787 18.8637 28.3747C18.8637 30.8166 17.2659 33.6569 15.2067 33.6569C13.1542 33.6569 11.6213 30.8696 11.6213 28.3747C11.619 28.2558 11.6257 28.1411 11.6324 28.0279Z" fill="black"/>
<path d="M21.2525 11.7673C21.5441 13.196 22.4849 14.5116 23.6782 14.5116C24.8882 14.5116 25.8435 13.2018 26.1441 11.7773C26.2592 11.7601 26.353 11.6498 26.362 11.4979L26.3988 10.9347C26.41 10.7871 26.3352 10.661 26.2335 10.6152C26.2313 10.5822 26.2313 10.5478 26.229 10.5148C26.2056 9.22512 26.0301 8.18331 25.2391 7.75196C24.4022 7.29769 23.6659 7.29053 23.1251 7.56137C23.0894 7.58 22.9977 7.7362 22.962 7.76486C22.9262 7.79352 22.7363 7.71327 22.6648 7.73477C21.4793 7.95116 21.0882 9.38418 21.1743 10.5034C21.1709 10.5335 21.1698 10.5664 21.1676 10.598C21.0525 10.6338 20.9709 10.7685 20.981 10.9233L21.019 11.4864C21.029 11.6455 21.1318 11.7601 21.2525 11.7673ZM21.505 10.6524C22.0245 10.4088 23.0234 9.89864 23.1329 9.62923C23.5866 10.234 25.191 10.575 25.8961 10.6882C25.8994 10.747 25.9039 10.8043 25.9039 10.8631C25.9039 12.3477 24.9307 14.0745 23.6782 14.0745C22.429 14.0745 21.4972 12.3792 21.4972 10.8631C21.4972 10.7914 21.5005 10.7226 21.505 10.6524Z" fill="black"/>
<path d="M15.8312 11.6641C14.1843 11.965 13.6413 13.9555 13.7608 15.5089C13.7575 15.5519 13.7552 15.5963 13.7519 15.6393C13.5921 15.6894 13.4781 15.8757 13.4938 16.0907L13.5463 16.8731C13.5608 17.0938 13.7027 17.2529 13.8703 17.2629C14.2759 19.2462 15.582 21.0733 17.239 21.0733C18.9184 21.0733 20.2468 19.2548 20.6625 17.2772C20.82 17.2543 20.9508 17.0995 20.9653 16.8889L21.0167 16.1079C21.0301 15.903 20.9295 15.7281 20.7865 15.6636C20.7832 15.6178 20.7832 15.5705 20.7787 15.5232C20.7474 13.7319 20.5038 12.2846 19.4055 11.687C18.2446 11.0565 17.2211 11.0479 16.4714 11.4219C16.4223 11.4477 16.2949 11.6641 16.2446 11.7042C16.1943 11.7443 15.9318 11.6325 15.8312 11.6641ZM16.4804 14.2965C17.1105 15.1363 19.3385 15.6092 20.3172 15.7668C20.3217 15.8471 20.3273 15.9273 20.3273 16.009C20.3273 18.0711 18.9776 20.4686 17.2379 20.4686C15.5038 20.4686 14.21 18.1141 14.21 16.009C14.21 15.9101 14.2156 15.8127 14.2211 15.7167C14.9429 15.3785 16.3295 14.6677 16.4804 14.2965Z" fill="black"/>
<path d="M26.7755 17.263C27.181 19.2463 28.4872 21.0734 30.1442 21.0734C31.8246 21.0734 33.152 19.2549 33.5676 17.2773C33.6771 17.2615 33.7553 17.1698 33.809 17.0537L33.8917 17.0423C33.9107 17.0394 33.9442 17.0237 33.9475 16.9807L34 16.2011C34.0023 16.1481 33.9609 16.128 33.9565 16.1266L33.9218 16.1108C33.9352 15.9059 33.8347 15.7311 33.6905 15.6666C33.6883 15.6207 33.6883 15.5734 33.6838 15.5261C33.6525 13.7348 33.409 12.2875 32.3107 11.6899C31.1498 11.0594 30.1263 11.0508 29.3766 11.4248C29.3274 11.4506 29.2 11.667 29.1498 11.7071C29.1006 11.7458 28.838 11.6355 28.7375 11.6656C27.0905 11.9665 26.5475 13.957 26.6671 15.5104C26.6637 15.5534 26.6615 15.5978 26.657 15.6408C26.4972 15.6909 26.3844 15.8772 26.4 16.0922L26.4526 16.8746C26.4671 17.0924 26.6079 17.2544 26.7755 17.263ZM27.1252 15.7153C27.847 15.3771 29.2347 14.6678 29.3844 14.2952C30.0134 15.1349 32.2425 15.6078 33.2224 15.7655C33.2269 15.8457 33.2324 15.926 33.2324 16.0076C33.2324 18.0698 31.8827 20.4672 30.1431 20.4672C28.4079 20.4672 27.114 18.1128 27.114 16.0076C27.1174 15.9102 27.1207 15.8113 27.1252 15.7153Z" fill="black"/>
<path d="M20.8883 17.5639C20.695 18.3678 20.3408 19.156 19.8748 19.8166L23.6681 19.8195V19.8109L27.5419 19.808C27.0871 19.1502 26.7408 18.3635 26.5508 17.5625C26.3419 17.4535 26.1933 17.2056 26.1732 16.9047L26.1207 16.1223C26.1005 15.8342 26.2056 15.5662 26.3843 15.4086C26.3642 15.1335 26.3732 14.8497 26.3966 14.566C26.1709 14.2679 25.9073 14.0573 25.5888 13.9985C25.5262 13.9856 25.4648 14.0042 25.4246 14.0257L24.4257 15.7583L23.667 14.983L23.6626 14.9873V14.9916L23.6614 14.9902L22.905 15.7669L21.9061 14.0343C21.8659 14.0143 21.8045 13.9956 21.743 14.0085C21.457 14.0601 21.2167 14.2393 21.0056 14.4886C21.0324 14.8082 21.0503 15.1306 21.057 15.4502C21.2201 15.6107 21.3128 15.8686 21.295 16.1395L21.2436 16.919C21.2235 17.2085 21.086 17.4478 20.8883 17.5639Z" fill="black"/>
<path d="M36.9664 30.5085C36.6737 31.4672 36.191 32.3629 35.5742 33.0249C36.1988 32.3543 36.6815 31.4543 36.9664 30.5085Z" fill="black"/>
<path d="M13.857 22.9049C13.8782 22.9092 13.8983 22.9149 13.9173 22.9192C13.9251 22.9078 13.9329 22.8963 13.9419 22.8834C14.0413 22.743 14.1061 22.6555 14.1944 22.6111C14.6972 22.3603 15.2659 22.2643 15.8704 22.3073L14.7776 20.4114C14.7218 20.3828 14.6368 20.3584 14.5508 20.3756C13.5262 20.5605 12.8804 21.8344 12.4704 23.3147C12.7732 23.1112 13.1061 22.9465 13.5005 22.8734L13.591 22.8633C13.6648 22.8662 13.7642 22.8848 13.857 22.9049Z" fill="black"/>
<path d="M18.6537 32.8272L18.7297 33.9664C18.7509 34.2889 18.9576 34.5224 19.2023 34.5368C19.7923 37.4258 21.6962 40.0898 24.1096 40.0898C26.5576 40.0898 28.4928 37.4387 29.0973 34.5568C29.3275 34.5239 29.5174 34.2989 29.5397 33.9908L29.6146 32.853C29.6358 32.5563 29.4895 32.2998 29.2783 32.2081C29.2738 32.1407 29.2727 32.0705 29.266 32.0032C29.2224 29.3936 28.8682 27.2842 27.2649 26.4144C25.5744 25.4958 24.0839 25.4829 22.9911 26.0274C22.9196 26.0633 22.7342 26.38 22.6615 26.4387C22.5889 26.496 22.2057 26.3341 22.0604 26.3785C19.6615 26.817 18.8694 29.7175 19.0437 31.9788C19.0392 32.0419 19.0347 32.1049 19.0314 32.1694C18.7978 32.2425 18.6314 32.5133 18.6537 32.8272ZM19.7129 32.2812C20.7632 31.7882 22.7856 30.7564 23.0046 30.2133C23.9241 31.4371 27.1699 32.125 28.5945 32.3543C28.6012 32.4718 28.6101 32.5893 28.6101 32.7068C28.6101 35.7133 26.6437 39.2056 24.1096 39.2056C21.5833 39.2056 19.6973 35.7749 19.6973 32.7068C19.6962 32.5635 19.7051 32.423 19.7129 32.2812Z" fill="black"/>
<path d="M18.2782 22.8074L17.2257 21.7312L17.2189 21.7384V21.7455L17.2178 21.7441L16.543 22.4334C16.981 22.538 17.4268 22.6856 17.8793 22.9321C19.381 23.7475 19.6335 25.7953 19.6726 27.7112C20.2044 26.86 20.9664 26.2166 22.0189 26.0231L22.1206 26.0117C22.2089 26.0117 22.3273 26.036 22.4379 26.0618C22.4581 26.0661 22.4759 26.0704 22.4949 26.0747C22.2212 23.8034 21.5463 20.6636 19.8905 20.3641C19.8033 20.3469 19.7184 20.3713 19.6625 20.4014L18.2782 22.8074Z" fill="black"/>
<path d="M32.7977 20.3641C32.7106 20.3469 32.6268 20.3713 32.5709 20.4014L31.1843 22.8089L30.1318 21.7326L30.1251 21.7398V21.747L30.124 21.7455L29.0715 22.8217L27.6838 20.4143C27.629 20.3856 27.5441 20.3612 27.4581 20.3784C25.9821 20.645 25.2838 23.1714 24.9564 25.3267C25.7285 25.3869 26.5486 25.6377 27.3765 26.0862C27.8938 26.3671 28.2838 26.7654 28.5866 27.2441C28.5765 25.3238 29.3732 23.2287 31.2871 22.8776L31.3776 22.8676C31.4502 22.8676 31.5508 22.8877 31.6447 22.9092C31.6659 22.9135 31.686 22.9192 31.705 22.9235C31.7128 22.912 31.7218 22.9006 31.7296 22.8877C31.8279 22.7472 31.8927 22.6598 31.9821 22.6154C32.7452 22.2342 33.6614 22.1998 34.6234 22.4965C34.2111 21.3816 33.629 20.5146 32.7977 20.3641Z" fill="black"/>
<path d="M24.0883 50.8131L32.038 50.8045C32.038 50.8045 31.7955 39.7429 27.9765 39.0536C27.8503 39.0264 27.7251 39.0651 27.6458 39.1067L25.6246 42.6119L24.0905 41.0441L24.0816 41.0527V41.0642L24.0793 41.0613L22.5452 42.6305L20.524 39.1224C20.4436 39.0809 20.3195 39.0451 20.1933 39.0694C16.3743 39.7573 16.1318 50.8217 16.1318 50.8217L24.0871 50.8274L24.0883 50.8131Z" fill="black"/>
<path d="M32.9721 43.0876L39.4324 43.0819C39.4324 43.0819 39.2357 34.0925 36.1318 33.5293C36.029 33.5093 35.9285 33.5379 35.8637 33.5723L34.2201 36.4226L32.9743 35.1458L32.9665 35.1544V35.1644L32.9654 35.1616L31.7195 36.437L30.0771 33.5881C30.0212 33.558 29.9341 33.5465 29.848 33.5523L29.8167 34.0223C29.7933 34.4064 29.5989 34.7216 29.324 34.8535C28.9307 36.5416 28.0581 38.2039 26.8693 39.2758C26.8279 39.538 26.7933 39.7931 26.7598 40.0425L27.4693 38.8129L27.5408 38.7757C27.6212 38.7341 27.8134 38.6582 28.0201 38.6997C29.6112 38.9877 30.6089 40.8879 31.2413 43.0991L32.9732 43.102L32.9721 43.0876Z" fill="black"/>
<path d="M8.72299 43.0962L15.1878 43.0991V43.0847H16.9386C17.5722 40.885 18.5688 38.9992 20.1543 38.7154C20.342 38.6796 20.5476 38.747 20.6269 38.7885L20.7006 38.8258L21.3956 40.031C21.3587 39.7429 21.3174 39.4491 21.2682 39.1468C20.1632 38.072 19.3498 36.4742 18.9777 34.8448C18.6872 34.7245 18.4772 34.3977 18.4504 33.9965L18.4213 33.5551C18.3956 33.5494 18.3744 33.5336 18.3476 33.5279C18.2448 33.5064 18.1442 33.5365 18.0783 33.5694L16.4358 36.4197L15.19 35.1443L15.1822 35.1529V35.1615L15.1811 35.1587L13.9353 36.4341L12.2928 33.5838C12.2269 33.5522 12.1263 33.5221 12.0236 33.5422C8.91964 34.1039 8.72299 43.0962 8.72299 43.0962Z" fill="black"/>
<path d="M41.838 6.31752L44.7229 0.731567L34.1408 2.4469L37.4034 14.9057L39.9587 9.95884C44.0726 15.0117 46.6469 22.1038 46.6469 29.9697C46.6469 45.2816 36.9363 57.7346 24.9989 57.7346C13.0626 57.736 3.35196 45.2816 3.35196 29.9711C3.35196 18.6129 8.70056 8.84251 16.3318 4.54486L13.8101 1.31194C5.63017 6.58836 0 17.4479 0 29.9725C0 47.6518 11.2156 62.0366 25 62.0366C38.7844 62.0366 50 47.6518 50 29.9725C50 20.6077 46.8458 12.1858 41.838 6.31752Z" fill="black"/>
</svg>
