<svg width="24" height="24" viewBox="0 0 24 24" fill="none" xmlns="http://www.w3.org/2000/svg">
<path d="M7.539 24C16.596 24 21.5505 14.7642 21.5505 6.76892C21.5505 6.51047 21.5505 6.24833 21.5415 5.98988C22.5061 5.13052 23.3386 4.06657 24 2.8479C23.099 3.33683 22.1441 3.65906 21.1665 3.80415C22.1963 3.0466 22.9676 1.85466 23.337 0.449871C22.3695 1.15529 21.3105 1.6505 20.2065 1.91379C19.4643 0.940965 18.4821 0.296497 17.4121 0.0802122C16.3421 -0.136072 15.2441 0.0878992 14.288 0.717433C13.3319 1.34697 12.5712 2.34693 12.1237 3.56243C11.6761 4.77793 11.5668 6.14114 11.8125 7.44088C9.85461 7.32006 7.93922 6.69409 6.19056 5.60358C4.4419 4.51307 2.89903 2.98237 1.662 1.11076C1.03401 2.44561 0.842361 4.02457 1.12597 5.52701C1.40958 7.02945 2.14718 8.34274 3.189 9.20017C2.40831 9.16753 1.64478 8.90953 0.96 8.44698V8.53006C0.961346 9.92841 1.35496 11.2833 2.07431 12.3657C2.79366 13.4481 3.79462 14.1917 4.908 14.4707C4.48539 14.6139 4.04884 14.6854 3.6105 14.683C3.30148 14.6841 2.99307 14.6489 2.6895 14.5777C3.00418 15.7815 3.61691 16.8339 4.44187 17.5877C5.26683 18.3414 6.2627 18.7588 7.29 18.7812C5.54483 20.4681 3.3891 21.383 1.17 21.3786C0.778981 21.3806 0.388235 21.3529 0 21.2955C2.25227 23.0627 4.86795 24.001 7.539 24Z" fill="#662D91"/>
</svg>
